<?xml version="1.0" encoding="UTF-8"?>
<svg width="40px" height="40px" viewBox="0 0 40 40" version="1.1" xmlns="http://www.w3.org/2000/svg" xmlns:xlink="http://www.w3.org/1999/xlink">
    <!-- Generator: Sketch 43.1 (39012) - http://www.bohemiancoding.com/sketch -->
    <title>dengji_icon_1</title>
    <desc>Created with Sketch.</desc>
    <defs></defs>
    <g id="Page-1" stroke="none" stroke-width="1" fill="none" fill-rule="evenodd">
        <g id="Group-9-Copy" transform="translate(0.000000, 12.000000)">
            <g id="Group-8" transform="translate(0.540541, 0.081081)">
                <rect id="Rectangle-21" fill="#FFFFFF" x="0" y="0" width="38" height="26" rx="2"></rect>
                <path d="M4.3257326,20.2177893 L4.3257326,18.6699765 C4.3257326,18.6699765 4.1752412,16.7483834 6.98564251,16.2615927 C6.98564251,16.2615927 9.12487265,15.9746872 9.2757053,15.3825924 C9.2757053,15.3825924 9.35746888,15.3168117 9.29843257,14.628761 C9.1726477,13.1637834 8.22219725,12.472777 7.83822236,11.9120947 C7.45417923,11.3513436 7.42326195,10.7050846 7.42326195,10.7050846 C7.42353495,10.5436229 7.49082952,10.4845097 7.60269138,10.3809927 C7.74089777,10.2529369 7.69974297,10.1164953 7.67367145,9.97208026 C7.57429935,9.42370176 7.56706484,8.54298306 7.66329744,7.99144268 C7.68588821,7.3345295 8.28573806,6.80787168 8.28573806,6.80787168 C8.39821417,6.71212196 8.51103154,6.60668042 8.59013336,6.48013682 C8.61224639,6.44487508 8.63258491,6.40707009 8.64459692,6.36699681 C8.68998321,6.2158456 8.53751256,6.10449273 8.56842984,5.94371844 C8.59634412,5.79868476 8.84320462,5.79201734 8.99246752,5.7843876 C9.32866735,5.76720352 9.66657344,5.7544873 10.002159,5.78095079 C12.5139663,5.97946133 13.3382224,6.91235091 13.3382224,6.91235091 C13.5333493,7.14852897 13.6616594,7.43715285 13.7386455,7.73292531 C13.761714,7.82132025 13.7815066,7.91163979 13.7920853,8.00250923 C13.8696174,8.45575665 13.8684571,8.92831897 13.8433411,9.38617172 C13.8312609,9.60440959 13.8057353,9.81927938 13.7735213,10.035249 C13.7566635,10.1482515 13.7650583,10.2534868 13.8399286,10.3439439 C13.9025139,10.4196226 13.97404,10.4726183 14.004616,10.572011 C14.0190168,10.618408 14.022634,10.6685856 14.0225658,10.716976 C14.0225658,10.716976 13.989328,11.3630975 13.6033739,11.9224739 C13.2174197,12.4818502 12.264444,13.169351 12.1335404,14.6338474 C12.0720471,15.321692 12.1536059,15.3877476 12.1536059,15.3877476 C12.3022546,15.9803923 14.440461,16.275065 14.440461,16.275065 C17.2805511,16.8107273 17.0917031,18.6930031 17.0917031,18.6930031 L17.0917031,20.2177893 L4.3257326,20.2177893 Z" id="Fill-5" fill="#000000"></path>
                <rect id="Rectangle-22" fill="#000000" x="18.7387387" y="7.20720721" width="14.0563983" height="1.44144144" rx="0.720720721"></rect>
                <rect id="Rectangle-22-Copy" fill="#000000" x="18.7387387" y="12.972973" width="14.0563983" height="1.44144144" rx="0.720720721"></rect>
                <rect id="Rectangle-22-Copy-2" fill="#000000" x="18.7387387" y="18.7387387" width="14.0563983" height="1.44144144" rx="0.720720721"></rect>
            </g>
        </g>
    </g>
</svg>