<?xml version="1.0" encoding="UTF-8"?>
<svg width="40px" height="40px" viewBox="0 0 40 40" version="1.1" xmlns="http://www.w3.org/2000/svg" xmlns:xlink="http://www.w3.org/1999/xlink">
    <!-- Generator: Sketch 43.1 (39012) - http://www.bohemiancoding.com/sketch -->
    <title>dengji_icon_2</title>
    <desc>Created with Sketch.</desc>
    <defs></defs>
    <g id="Page-1" stroke="none" stroke-width="1" fill="none" fill-rule="evenodd">
        <g id="Group-10-Copy" transform="translate(8.000000, -1.000000)">
            <g id="工作证" transform="translate(7.017544, 0.000000)">
                <polygon id="Fill-6" points="1.10684211 10.3811619 10.100117 10.3811619 10.100117 5.53297409 1.10684211 5.53297409"></polygon>
                <path d="M10.640515,10.9117591 L0.587555207,10.9117591 C0.263053199,10.9117591 0,10.6956896 0,10.4286665 L0,6.01606663 C0,5.74904352 0.263053199,5.53297409 0.587555207,5.53297409 L10.640515,5.53297409 C10.965017,5.53297409 11.2280702,5.74904352 11.2280702,6.01606663 L11.2280702,10.4286128 C11.2280702,10.6956896 10.965017,10.9117591 10.640515,10.9117591 Z M1.17517578,9.94552024 L10.0529598,9.94552024 L10.0529598,6.49915916 L1.17517578,6.49915916 L1.17517578,9.94552024 Z" id="Fill-7" fill="#FFFFFF"></path>
                <polygon id="Fill-8" points="3.18426901 6.56688566 8.02269006 6.56688566 8.02269006 0.574474053 3.18426901 0.574474053"></polygon>
                <path d="M7.92004039,7.09777811 L3.30802979,7.09777811 C3.03132476,7.09777811 2.80701754,6.90614817 2.80701754,6.66932788 L2.80701754,1.83195899 C2.80701754,1.59513871 3.03132476,1.40350877 3.30802979,1.40350877 L7.92004039,1.40350877 C8.19668967,1.40350877 8.42105263,1.59513871 8.42105263,1.83195899 L8.42105263,6.66928022 C8.42105263,6.90614817 8.19668967,7.09777811 7.92004039,7.09777811 Z M3.80904204,6.24082999 L7.4189724,6.24082999 L7.4189724,2.26040922 L3.80904204,2.26040922 L3.80904204,6.24082999 Z" id="Fill-9" fill="#FFFFFF"></path>
            </g>
            <path d="M22.8204562,8.42105263 C24.614832,8.42105263 26.069461,9.87267418 26.069461,11.6755347 L26.069461,36.1240555 C26.069461,37.9214563 24.6119927,39.3785375 22.8204562,39.3785375 L3.24900478,39.3785375 C1.45462899,39.3785375 2.89429158e-15,37.926916 2.89429158e-15,36.1240555 L0,11.6755347 C0,9.87813386 1.45746821,8.42105263 3.24900478,8.42105263" id="Rectangle-21-Copy" fill="#FFFFFF"></path>
            <path d="M5.33492519,28.3359247 L5.33492519,26.586346 C5.33492519,26.586346 5.1648164,24.4142626 8.34156907,23.864016 C8.34156907,23.864016 10.7596597,23.5397108 10.9301542,22.8704332 C10.9301542,22.8704332 11.0225761,22.7960776 10.9558441,22.0183357 C10.8136625,20.3623901 9.73931556,19.5813072 9.30528743,18.9475369 C8.87118214,18.3136888 8.83623462,17.5831863 8.83623462,17.5831863 C8.83654321,17.4006773 8.91261,17.3338583 9.03905367,17.2168473 C9.19527603,17.0720988 9.14875648,16.9178712 9.11928639,16.7546309 C9.00696059,16.1347682 8.99878302,15.1392429 9.10756007,14.5158062 C9.13309567,13.7732608 9.81113927,13.1779502 9.81113927,13.1779502 C9.93827727,13.069719 10.065801,12.9505325 10.1552142,12.8074933 C10.1802098,12.767635 10.2031995,12.7249019 10.2167774,12.6796048 C10.26808,12.5087502 10.095734,12.3828819 10.1306815,12.2011498 C10.1622345,12.0372102 10.4412747,12.0296736 10.6099948,12.0210493 C10.9900202,12.0016252 11.3719742,11.9872513 11.7513052,12.0171645 C14.5905404,12.241552 15.5222429,13.2960489 15.5222429,13.2960489 C15.7428057,13.563014 15.8878417,13.8892616 15.9748634,14.2235897 C16.000939,14.3235074 16.0233116,14.4256006 16.0352694,14.5283154 C16.1229082,15.0406461 16.1215967,15.5748095 16.0932066,16.0923459 C16.0795516,16.3390323 16.0506987,16.5819115 16.0142854,16.8260339 C15.9952301,16.953767 16.0047192,17.0727203 16.0893493,17.1749689 C16.160093,17.2605128 16.2409428,17.3204168 16.2755046,17.4327659 C16.2917826,17.4852111 16.2958714,17.5419295 16.2957942,17.5966278 C16.2957942,17.5966278 16.2582237,18.3269749 15.8219583,18.9592691 C15.3856929,19.5915632 14.3084916,20.3686836 14.1605239,22.0240852 C14.0910146,22.8015941 14.1832051,22.8762604 14.1832051,22.8762604 C14.3512309,23.5461596 16.7681644,23.8792445 16.7681644,23.8792445 C19.9784759,24.4847334 19.7650106,26.6123743 19.7650106,26.6123743 L19.7650106,28.3359247 L5.33492519,28.3359247 Z M5.33333333,32.3667664 C5.33333333,31.9168362 5.6901461,31.5520957 6.15075911,31.5520957 L18.9505258,31.5520957 C19.4019776,31.5520957 19.7679516,31.9136994 19.7679516,32.3667664 C19.7679516,32.8166965 19.4111388,33.181437 18.9505258,33.181437 L6.15075911,33.181437 C5.69930732,33.181437 5.33333333,32.8198334 5.33333333,32.3667664 Z M5.33333333,35.625449 C5.33333333,35.1755188 5.6901461,34.8107783 6.15075911,34.8107783 L18.9505258,34.8107783 C19.4019776,34.8107783 19.7679516,35.172382 19.7679516,35.625449 C19.7679516,36.0753792 19.4111388,36.4401196 18.9505258,36.4401196 L6.15075911,36.4401196 C5.69930732,36.4401196 5.33333333,36.078516 5.33333333,35.625449 Z" id="Combined-Shape" fill="#474647"></path>
        </g>
    </g>
</svg>