<?xml version="1.0" encoding="UTF-8"?>
<svg width="40px" height="40px" viewBox="0 0 40 40" version="1.1" xmlns="http://www.w3.org/2000/svg" xmlns:xlink="http://www.w3.org/1999/xlink">
    <!-- Generator: Sketch 43.1 (39012) - http://www.bohemiancoding.com/sketch -->
    <title>dengji_icon_3</title>
    <desc>Created with Sketch.</desc>
    <defs></defs>
    <g id="Page-1" stroke="none" stroke-width="1" fill="none" fill-rule="evenodd">
        <g id="Group-11-Copy" transform="translate(6.000000, 10.000000)">
            <path d="M29,12.2692308 L29,8.45217195 C29,6.25822267 27.208298,4.46153846 24.9981215,4.46153846 L4.00187852,4.46153846 C1.79219474,4.46153846 0,6.24820593 0,8.45217195 L0,12.2692308 L29,12.2692308 Z M29,13.3846154 L29,24.6375716 C29,26.8415377 27.2078053,28.6282051 24.9981215,28.6282051 L4.00187852,28.6282051 C1.79170204,28.6282051 0,26.8315209 0,24.6375716 L0,13.3846154 L29,13.3846154 Z M13.3846154,13.3846154 L13.3846154,16.7307692 L15.6153846,16.7307692 L15.6153846,13.3846154 L13.3846154,13.3846154 Z" id="Combined-Shape" fill="#FFFFFF"></path>
            <path d="M8.92307692,4.83333333 C8.92307692,2.16395704 10.1086812,0 11.5814719,0 L17.5424597,0 C19.0106507,0 20.2008547,2.16342094 20.2008547,4.83333333" id="Rectangle-21-Copy-3" stroke="#FFFFFF" stroke-width="2" opacity="0.970149254"></path>
        </g>
    </g>
</svg>