<?xml version="1.0" encoding="UTF-8"?>
<svg width="123px" height="122px" viewBox="0 0 123 122" version="1.1" xmlns="http://www.w3.org/2000/svg" xmlns:xlink="http://www.w3.org/1999/xlink">
    <!-- Generator: Sketch 43.1 (39012) - http://www.bohemiancoding.com/sketch -->
    <title>flow_icon_two@2x</title>
    <desc>Created with Sketch.</desc>
    <defs>
        <ellipse id="path-1" cx="58.5" cy="58.5" rx="58.5" ry="58.5"></ellipse>
    </defs>
    <g id="Page-1" stroke="none" stroke-width="1" fill="none" fill-rule="evenodd">
        <rect id="Rectangle-5-Copy-4" fill="#FFFFFF" x="-223" y="-24" width="750" height="204"></rect>
        <g id="Group-10-Copy" transform="translate(3.000000, 3.000000)">
            <g id="Oval-6-Copy">
                <use fill="#FFFFFF" fill-rule="evenodd" xlink:href="#path-1"></use>
                <ellipse stroke="#DCDCDC" stroke-width="1" cx="58.5" cy="58.5" rx="58" ry="58"></ellipse>
            </g>
            <path d="M53.0739417,70.2322913 L42.8389126,59.9972621 C42.5506019,59.7089515 42.4064466,59.2764854 42.4064466,58.8440194 C42.4064466,58.4115534 42.5506019,57.9790874 42.8389126,57.6907767 C43.1272233,57.402466 43.5596893,57.2583107 43.9921553,57.2583107 C44.4246214,57.2583107 44.8570874,57.402466 45.1453981,57.6907767 L54.2271845,66.7725631 L73.6881553,47.1674369 C73.976466,46.8791262 74.408932,46.7349709 74.8413981,46.7349709 C75.2738641,46.7349709 75.7063301,46.8791262 75.9946408,47.1674369 C76.2829515,47.4557476 76.4271068,47.8882136 76.4271068,48.3206796 C76.4271068,48.7531456 76.2829515,49.1856117 75.9946408,49.4739223 L55.3804272,70.2322913 C55.0921165,70.5206019 54.6596505,70.6647573 54.2271845,70.6647573 C53.7947184,70.6647573 53.3622524,70.5206019 53.0739417,70.2322913 Z" id="Fill-1" fill="#474647"></path>
            <path d="M31.3064854,82.3413398 C29.864932,80.6114757 29,78.3049903 29,76.2868155 L29,39.6713592 C29,35.4908544 32.1714175,32.1752816 36.207767,32.1752816 C37.072699,32.1752816 37.9376311,32.8960583 37.9376311,33.9051456 C37.9376311,34.7700777 37.2168544,35.0513702 36.207767,35.0513702 C34.0454369,35.0513702 31.9758788,37.2207184 31.9758788,39.6713592 L31.9758788,76.2868155 C31.9758788,78.7374563 34.4779029,82.0530291 36.640233,82.0530291 L80.6076117,82.0530291 C82.4816311,82.0530291 84.0442203,79.025767 84.0442203,76.2868155 L84.0442203,39.6713592 C84.0442203,37.7973398 83.2024078,35.0513702 80.6076117,35.0513702 C79.7426796,35.0513702 78.3011262,34.7700777 78.3011262,33.7609903 C78.3011262,32.8960583 79.0219029,32.0311262 80.0309903,32.0311262 C81.9050097,32.0311262 83.6348738,32.7519029 84.9322718,34.1934563 C86.2296699,35.6350097 86.9504466,37.5090291 86.9504466,39.6713592 L86.9504466,76.2868155 C86.9504466,80.6114757 84.9322718,84.8652538 80.6076117,84.8652538 L36.640233,84.8652538 C34.6220583,84.8652538 32.7480388,84.2153592 31.3064854,82.3413398 Z" id="Fill-2" fill="#474647"></path>
            <path d="M49.6142136,33.9274705 C48.7492816,33.9274705 47.8843495,33.4726796 47.8843495,32.4635922 C47.8843495,31.5986602 48.6051262,31.0038089 49.6142136,31.0038089 L66.0479223,31.0038089 C66.9128544,31.0038089 67.6521488,31.5895452 67.6521488,32.5986326 C67.6521488,33.4635647 67.0570097,33.9274705 66.0479223,33.9274705 L49.6142136,33.9274705 Z M42.5422067,39.9596699 C41.5331194,39.9596699 41.0922581,39.2388932 41.0922581,38.3739612 L41.0922581,31.7428155 C41.0922581,30.8778835 41.5331194,30.0129515 42.5422067,30.0129515 C43.5512941,30.0129515 43.9921553,30.7337282 43.9921553,31.7428155 L43.9921553,38.3739612 C43.848,39.2388932 43.4071388,39.9596699 42.5422067,39.9596699 Z M72.0413853,38.3739612 L72.0413853,31.7428155 C72.0413853,30.8778835 72.3907573,30.0129515 73.3998447,30.0129515 C74.6405521,30.0129515 75.1297087,30.8778835 75.1297087,31.7428155 L75.1297087,38.3739612 C75.1297087,39.2388932 74.408932,39.9596699 73.3998447,39.9596699 C72.5349126,39.9596699 72.0413853,39.3830485 72.0413853,38.3739612 Z" id="Fill-3" fill="#474647"></path>
        </g>
    </g>
</svg>