<?xml version="1.0" encoding="UTF-8"?>
<svg width="123px" height="122px" viewBox="0 0 123 122" version="1.1" xmlns="http://www.w3.org/2000/svg" xmlns:xlink="http://www.w3.org/1999/xlink">
    <!-- Generator: Sketch 43.1 (39012) - http://www.bohemiancoding.com/sketch -->
    <title>flow_icon_thr@2x</title>
    <desc>Created with Sketch.</desc>
    <defs>
        <ellipse id="path-1" cx="58.5" cy="58.5" rx="58.5" ry="58.5"></ellipse>
    </defs>
    <g id="Page-1" stroke="none" stroke-width="1" fill="none" fill-rule="evenodd">
        <rect id="Rectangle-5-Copy-4" fill="#FFFFFF" x="-407" y="-25" width="750" height="204"></rect>
        <g id="Group-8-Copy" transform="translate(3.000000, 3.000000)">
            <g id="Group-13">
                <g id="Oval-6-Copy-2">
                    <use fill="#FFFFFF" fill-rule="evenodd" xlink:href="#path-1"></use>
                    <ellipse stroke="#DCDCDC" stroke-width="1" cx="58.5" cy="58.5" rx="58" ry="58"></ellipse>
                </g>
                <g id="Page-1" transform="translate(28.333333, 27.000000)" fill="#474647">
                    <path d="M44.2661,24.8764 C43.7561,24.8764 43.3421,24.4624 43.3421,23.9534 C43.3421,23.4444 43.7561,23.0294 44.2661,23.0294 C44.7751,23.0294 45.1901,23.4444 45.1901,23.9534 C45.1901,24.4624 44.7751,24.8764 44.2661,24.8764 M33.5481,34.4534 C33.0381,34.4534 32.6241,34.0384 32.6241,33.5284 C32.6241,33.2404 32.7561,32.9734 32.9871,32.7964 C33.1641,32.6664 33.3491,32.6054 33.5491,32.6054 C34.0581,32.6054 34.4721,33.0194 34.4721,33.5284 C34.4711,34.0384 34.0561,34.4534 33.5481,34.4534 M29.1011,27.8554 L29.1011,27.8834 L29.0281,27.9304 C28.8561,28.0914 28.6231,28.1554 28.4021,28.1554 C28.1681,28.1554 27.9461,28.0844 27.8171,27.9804 L27.8161,27.9804 C27.5961,27.8024 27.4701,27.5404 27.4701,27.2604 C27.4701,26.7514 27.8841,26.3364 28.3931,26.3364 C28.9031,26.3364 29.3171,26.7514 29.3171,27.2604 C29.3181,27.4764 29.2401,27.6894 29.1011,27.8554 M19.6201,34.8264 C19.4461,35.0014 19.2121,35.0984 18.9651,35.0984 C18.4551,35.0984 18.0411,34.6834 18.0411,34.1734 C18.0411,33.6644 18.4551,33.2504 18.9651,33.2504 C19.4741,33.2504 19.8881,33.6644 19.8881,34.1734 C19.8891,34.4194 19.7931,34.6514 19.6201,34.8264 M44.2661,21.7194 C43.0341,21.7194 42.0321,22.7214 42.0321,23.9534 C42.0321,24.2434 42.0881,24.5274 42.2011,24.7984 L42.2481,24.9154 L34.9021,31.7514 L34.7841,31.6714 C34.2301,31.3004 33.5361,31.1924 32.8761,31.4014 L32.7581,31.4394 L30.3241,28.3734 L30.3761,28.2694 C30.5421,27.9414 30.6271,27.6024 30.6271,27.2614 C30.6271,26.0294 29.6251,25.0274 28.3931,25.0274 C27.1621,25.0274 26.1601,26.0294 26.1601,27.2614 C26.1601,27.3514 26.1731,27.4384 26.1881,27.5254 L26.2131,27.6964 L20.2641,32.3614 L20.1571,32.2934 C19.7931,32.0624 19.3811,31.9414 18.9651,31.9414 C17.7341,31.9414 16.7321,32.9434 16.7321,34.1754 C16.7321,35.4074 17.7341,36.4104 18.9651,36.4104 C20.1981,36.4104 21.2001,35.4074 21.2001,34.1754 C21.2001,33.9734 21.1641,33.7674 21.0901,33.5254 L21.0541,33.4074 L26.8441,28.8674 L26.9941,29.0004 C27.6171,29.5024 28.5001,29.6324 29.2421,29.3284 L29.3681,29.2774 L31.7291,32.2514 L31.6621,32.3594 C31.4311,32.7294 31.3141,33.1234 31.3141,33.5294 C31.3141,34.7614 32.3161,35.7644 33.5481,35.7644 C34.7801,35.7644 35.7821,34.7614 35.7821,33.5294 C35.7821,33.3514 35.7541,33.1644 35.6931,32.9394 L35.6631,32.8344 L35.7441,32.7594 L43.1411,25.8754 L43.2541,25.9334 C43.5821,26.1024 43.9231,26.1874 44.2661,26.1874 C45.4981,26.1874 46.5001,25.1854 46.5001,23.9534 C46.5001,22.7214 45.4981,21.7194 44.2661,21.7194" id="Fill-1"></path>
                    <g id="Group-5" transform="translate(0.000000, 0.821700)">
                        <path d="M36.0083,59.9991 C35.4043,60.0211 34.8523,59.6031 34.7293,58.9921 C34.5903,58.3091 35.0333,57.6441 35.7133,57.5081 C49.0493,54.8241 58.3853,43.0091 57.9113,29.4271 C57.3753,14.1651 44.5233,2.1841 29.2583,2.7181 C13.9913,3.2471 2.0033,16.0961 2.5373,31.3581 C2.9783,43.9811 11.9113,54.6921 24.2643,57.4081 C24.9423,57.5591 25.3693,58.2281 25.2243,58.9091 C25.0703,59.5911 24.3983,60.0211 23.7203,59.8711 C10.2463,56.9061 0.4993,45.2201 0.0193,31.4491 C-0.5627,14.7991 12.5163,0.7791 29.1703,0.1971 C45.8273,-0.3849 59.8463,12.6861 60.4283,29.3361 C60.9483,44.1601 50.7623,57.0451 36.2173,59.9741 C36.1423,59.9891 36.0763,59.9971 36.0083,59.9991" id="Fill-3"></path>
                    </g>
                    <path d="M47.853,40.9848 L13.853,40.9848 L13.853,19.5778 C13.853,18.8818 13.289,18.3178 12.593,18.3178 C11.899,18.3178 11.334,18.8818 11.334,19.5778 L11.334,42.2438 C11.334,42.9418 11.899,43.5038 12.593,43.5038 L47.853,43.5038 C48.55,43.5038 49.112,42.9418 49.112,42.2438 C49.112,41.5518 48.55,40.9848 47.853,40.9848" id="Fill-6"></path>
                </g>
            </g>
        </g>
    </g>
</svg>