<?xml version="1.0" encoding="UTF-8"?>
<svg width="50px" height="50px" viewBox="0 0 50 50" version="1.1" xmlns="http://www.w3.org/2000/svg" xmlns:xlink="http://www.w3.org/1999/xlink">
    <!-- Generator: Sketch 43.1 (39012) - http://www.bohemiancoding.com/sketch -->
    <title>mine_ques_icon@2x</title>
    <desc>Created with Sketch.</desc>
    <defs></defs>
    <g id="Page-1" stroke="none" stroke-width="1" fill="none" fill-rule="evenodd">
        <path d="M23.0000464,8.90028996 C25.2218918,8.90028996 27.3870439,9.32159204 29.4357012,10.1525977 C31.5556658,11.0123212 33.4586003,12.2764594 35.09143,13.9095675 C36.7243989,15.5427684 37.9882587,17.4459347 38.8479822,19.5665025 C39.6787095,21.6151598 40.0999652,23.7808687 40.0999652,26.0028068 C40.0999652,28.2250233 39.6787559,30.390593 38.8479822,32.4393896 C37.9882587,34.5598181 36.7243989,36.46317 35.09143,38.0963245 C33.4586466,39.7294326 31.5557586,40.9933852 29.4357012,41.8532943 C27.3871831,42.6842072 25.2218918,43.1054165 23.0000464,43.1054165 C20.778201,43.1054165 18.6129097,42.6842072 16.5642988,41.8532943 C14.4442878,40.9933852 12.5413534,39.7294326 10.9085236,38.0963245 C9.27560114,36.46317 8.0116949,34.5598181 7.15197143,32.4393896 C6.32124409,30.390593 5.8999884,28.2250233 5.8999884,26.0028068 C5.8999884,23.7806831 6.32129048,21.6151134 7.15197143,19.5662241 C8.0116949,17.4459811 9.27560114,15.5428148 10.9085236,13.9096139 C12.5414461,12.2762275 14.4442878,11.0122284 16.5642988,10.1526441 C18.6129097,9.32159204 20.778201,8.90028996 23.0000464,8.90028996 Z M23.0000464,7 C18.137466,7 13.2749785,8.85528798 9.56495925,12.5659103 C2.14501358,19.9870158 2.14501358,32.0187834 9.56495925,39.4399817 C13.2748857,43.1505112 18.1374197,45.00566 23.0000464,45.00566 C27.862534,45.00566 32.7250215,43.1504185 36.4350407,39.4399817 C43.8549864,32.0188298 43.8549864,19.9870158 36.4350407,12.5659103 C32.7250215,8.85542716 27.862534,7 23.0000464,7 L23.0000464,7 Z M23.0260733,16.1895443 C21.2346696,16.1895443 19.7933999,16.6709263 18.7046302,17.6333193 C17.615675,18.5958514 16.960641,19.981031 16.739157,21.7906211 L19.1880536,22.0820206 C19.400398,20.730894 19.8453609,19.739041 20.5254012,19.1041419 C21.2052559,18.4691963 22.0525459,18.1507957 23.0666679,18.1507957 C24.1172554,18.1507957 25.0050472,18.5032958 25.7278625,19.2037494 C26.4506315,19.9040173 26.8121784,20.7196203 26.8121784,21.6461044 C26.8121784,22.1588951 26.6879822,22.6309984 26.4417239,23.0627855 C26.1954656,23.4940158 25.6578543,24.0748662 24.8331117,24.8021353 C24.0086012,25.5297293 23.4371688,26.0855734 23.1209486,26.4650746 C22.6895327,26.987144 22.3754467,27.5024399 22.1812886,28.0151378 C21.916844,28.6951317 21.7836474,29.5017343 21.7836474,30.4371724 C21.7836474,30.5952825 21.788194,30.8324012 21.7971016,31.1512194 L24.0854757,31.1512194 C24.1037085,30.1975485 24.1690773,29.5106883 24.2843195,29.0861386 C24.3996545,28.6614034 24.5778995,28.2884901 24.8152501,27.9609035 C25.052508,27.6332705 25.5607521,27.1272533 26.3355749,26.4358929 C27.4900382,25.4123066 28.2669951,24.5425156 28.6646363,23.8284687 C29.0621384,23.1144218 29.2611214,22.332779 29.2611214,21.4857211 C29.2611214,20.0215328 28.6962769,18.7720551 27.5667271,17.7393755 C26.4371773,16.7067888 24.923626,16.1895443 23.0260733,16.1895443 L23.0260733,16.1895443 Z M23.0072374,32.8971108 C22.201238,32.8971108 21.5479205,33.5504746 21.5479205,34.3564277 C21.5479205,35.1627055 22.201238,35.8160693 23.0072374,35.8160693 C23.8131905,35.8160693 24.466508,35.1627055 24.466508,34.3564277 C24.466508,33.5504746 23.8131905,32.8971108 23.0072374,32.8971108 L23.0072374,32.8971108 Z" id="常见问题" fill="#474647"></path>
    </g>
</svg>