<?xml version="1.0" encoding="UTF-8"?>
<svg width="50px" height="50px" viewBox="0 0 50 50" version="1.1" xmlns="http://www.w3.org/2000/svg" xmlns:xlink="http://www.w3.org/1999/xlink">
    <!-- Generator: Sketch 43.1 (39012) - http://www.bohemiancoding.com/sketch -->
    <title>mine_serve_icon@2x</title>
    <desc>Created with Sketch.</desc>
    <defs></defs>
    <g id="Page-1" stroke="none" stroke-width="1" fill="none" fill-rule="evenodd">
        <path d="M34.0557992,39.3134982 C30.4117669,38.1542049 26.5213333,35.6652642 22.5123108,31.4852789 C18.6239735,27.4309216 16.2054793,23.5989396 14.9655668,20.0792636 C14.1591026,17.7913516 13.956663,15.9871162 14.0752519,14.7502697 C14.0797439,14.6987269 14.0859129,14.6473636 14.0936391,14.5961796 L14.10999,14.4359905 C14.1325099,13.56957 14.6333982,12.2286215 15.1700428,11.6010198 C15.6815321,10.9374816 16.2345875,10.30695 16.8259746,9.7131321 C17.2971557,9.24063699 17.7510277,8.84569517 18.1650106,8.55593165 C18.7823915,8.12319979 19.1790053,8.01401527 19.2822615,8.0742282 C19.2720197,8.0752447 19.3323324,8.13749064 19.4182195,8.25486699 C19.5695101,8.45996168 19.7575753,8.75797683 19.977324,9.13551848 C20.503667,10.0641849 20.9997038,11.0096534 21.4645962,11.9704892 C22.4370848,13.9643923 23.3695047,15.9775491 24.261317,18.0087041 C24.3430714,18.1923924 24.306237,18.5975591 24.1968717,18.7607977 L21.9429645,22.1008514 C21.8718112,22.2105741 21.8173681,22.3302824 21.781492,22.45603 C21.4216526,23.6959261 22.371262,25.6378679 25.3192734,28.6370937 C27.1162541,30.4638117 28.6873171,31.6536599 30.0386312,32.3241342 C30.9463751,32.7752229 31.6332323,32.9364285 32.086086,32.9262635 C32.3007438,32.9170551 32.4816817,32.8568422 32.6380633,32.7527402 L35.9703506,30.5077008 C36.1420649,30.3923574 36.5652714,30.3474519 36.7625602,30.4270382 L37.1795977,30.5933861 C38.6501596,31.1839153 40.1113781,31.797286 41.5627142,32.4333187 C41.9000336,32.5823263 42.2240567,32.7272678 42.5337653,32.8680836 C43.5763891,33.3446447 44.432984,33.7660754 45.0555157,34.1110291 C45.380557,34.2926844 45.6340257,34.4488075 45.8016673,34.5722829 C45.8701853,34.6232875 45.9182198,34.6620941 45.9406798,34.6845169 C45.8922859,34.6296257 45.8564098,34.5648684 45.8354471,34.4947296 L45.9059416,34.6478032 C46.1226358,35.0335367 45.0984592,36.4714119 43.4353402,37.9348193 C43.1132337,38.2183643 42.785018,38.494973 42.4509927,38.7644662 C42.1517055,38.9861838 41.997001,39.3529624 42.0472515,39.7215947 C42.097502,40.0902868 42.3448018,40.4024134 42.6925426,40.5362332 C43.0402835,40.6699932 43.4334236,40.6042194 43.718516,40.3646234 C44.0810506,40.0727073 44.4371766,39.7729581 44.7866544,39.4655552 C47.3012175,37.2510707 48.6515135,35.3580407 47.6875896,33.6467259 L47.758144,33.7997994 C47.4688591,33.0038168 46.2115775,32.3037443 43.383233,31.0128436 C43.0663372,30.8668856 42.7341086,30.7188945 42.3896619,30.5668374 C40.7799078,29.8576164 39.1567377,29.1791895 37.5209899,28.532035 C36.7012294,28.2013721 35.5625367,28.3207815 34.826567,28.8156995 L31.4942198,31.0607987 L32.017568,30.8872754 C32.0451788,30.8862589 31.9910352,30.8801599 31.8744827,30.8525947 C31.5538137,30.769062 31.2435061,30.6499516 30.9494297,30.4974759 C29.8148097,29.9341532 28.4246248,28.8809949 26.7789347,27.2074103 C24.2970733,24.6837291 23.6490271,23.3570714 23.745096,23.0244353 C23.723774,23.0933782 23.6928091,23.1590324 23.6530998,23.2193052 L25.8926925,19.9007176 C26.3945989,19.1557395 26.4957588,18.0097206 26.1329248,17.1871893 L25.9346179,16.7392098 C25.2203895,15.1312196 24.483701,13.5333346 23.7246724,11.9459735 C23.5794909,11.6449088 23.438442,11.352036 23.2994295,11.0704045 C21.8141937,8.05282181 20.9749679,6.60777126 20.2226473,6.26389383 C19.3159815,5.73016928 18.1977124,6.04038248 16.9905017,6.88533673 C16.4671534,7.25169684 15.9274543,7.72114244 15.3785316,8.27119085 C14.7356362,8.91673088 14.1337078,9.60179498 13.5764599,10.3223769 C12.7689176,11.2653342 12.1003879,13.0573117 12.0666679,14.3839096 L12.0830188,14.2237204 C12.0697225,14.2951149 12.0543898,14.4053757 12.0400752,14.5564163 C11.8939354,16.0820099 12.1300351,18.1831841 13.037779,20.7569132 C14.376815,24.5582207 16.9506726,28.6370937 21.0352805,32.8966653 C25.2753117,37.3173827 29.4570067,39.9921045 33.4343456,41.2585492 C34.7662543,41.6820728 36.0163487,41.925974 37.1703741,42.0218842 C37.728221,42.0604515 38.2135369,41.6443425 38.2597147,41.0880157 C38.3058326,40.5316889 37.8956229,40.0415544 37.3390338,39.9880384 C36.2227413,39.8877035 35.1213621,39.6617406 34.0557992,39.3145147 L34.0557992,39.3134982" id="电话" fill="#3C3C3C"></path>
    </g>
</svg>