<?xml version="1.0" encoding="UTF-8"?>
<svg width="50px" height="50px" viewBox="0 0 50 50" version="1.1" xmlns="http://www.w3.org/2000/svg" xmlns:xlink="http://www.w3.org/1999/xlink">
    <!-- Generator: Sketch 43.1 (39012) - http://www.bohemiancoding.com/sketch -->
    <title>mine_back_icon@2x</title>
    <desc>Created with Sketch.</desc>
    <defs></defs>
    <g id="Page-1" stroke="none" stroke-width="1" fill="none" fill-rule="evenodd">
        <g id="意见反馈" transform="translate(10.000000, 7.000000)" fill="#474647">
            <path d="M31.9780645,8.70774194 C31.3587097,8.70774194 30.9870968,9.20322581 30.9870968,9.69870968 L30.9870968,31.0045161 C30.9870968,32.1193548 30.12,32.9864516 29.0051613,32.9864516 L4.10709677,32.9864516 C2.99225806,32.9864516 2.12516129,32.1193548 2.12516129,31.0045161 L2.12516129,5.98258065 C2.12516129,4.86774194 2.99225806,4.00064516 4.10709677,4.00064516 L24.2980645,4.00064516 C24.9174194,4.00064516 25.2890323,3.50516129 25.2890323,3.00967742 C25.2890323,2.51419355 24.7935484,2.01870968 24.2980645,2.01870968 L4.10709677,2.01870968 C1.87741935,2.01870968 0.0193548387,3.87677419 0.0193548387,5.98258065 L0.0193548387,31.0045161 C0.0193548387,33.2341935 1.87741935,34.9683871 4.10709677,34.9683871 L29.0051613,34.9683871 C31.2348387,34.9683871 33.0929032,33.2341935 33.0929032,31.0045161 L33.0929032,9.69870968 C32.9690323,9.07935484 32.5974194,8.70774194 31.9780645,8.70774194" id="Fill-1"></path>
            <path d="M16.8658065,12.0522581 L6.08903226,12.0522581 C5.46967742,12.0522581 5.09806452,12.5477419 5.09806452,13.0432258 C5.09806452,13.5387097 5.59354839,14.0341935 6.08903226,14.0341935 L16.8658065,14.0341935 C17.4851613,14.0341935 17.8567742,13.5387097 17.8567742,13.0432258 C17.8567742,12.423871 17.3612903,12.0522581 16.8658065,12.0522581" id="Fill-2"></path>
            <path d="M5.09806452,19.98 C5.09806452,20.4754839 5.59354839,20.9709677 6.08903226,20.9709677 L23.9264516,20.9709677 C24.5458065,20.9709677 24.9174194,20.4754839 24.9174194,19.98 C24.9174194,19.4845161 24.4219355,18.9890323 23.9264516,18.9890323 L6.08903226,18.9890323 C5.59354839,18.9890323 5.09806452,19.4845161 5.09806452,19.98" id="Fill-3"></path>
            <path d="M35.6941935,0.284516129 C35.3225806,-0.0870967742 34.7032258,-0.0870967742 34.2077419,0.284516129 L21.5729032,12.7954839 C21.2012903,13.1670968 21.2012903,13.7864516 21.5729032,14.1580645 C21.9445161,14.5296774 22.563871,14.5296774 23.0593548,14.1580645 L35.6941935,1.64709677 C36.0658065,1.27548387 36.0658065,0.656129032 35.6941935,0.284516129" id="Fill-4"></path>
        </g>
    </g>
</svg>