<?xml version="1.0" encoding="UTF-8"?>
<svg width="50px" height="50px" viewBox="0 0 50 50" version="1.1" xmlns="http://www.w3.org/2000/svg" xmlns:xlink="http://www.w3.org/1999/xlink">
    <!-- Generator: Sketch 43.1 (39012) - http://www.bohemiancoding.com/sketch -->
    <title>mine_us_icon@2x</title>
    <desc>Created with Sketch.</desc>
    <defs></defs>
    <g id="Page-1" stroke="none" stroke-width="1" fill="none" fill-rule="evenodd">
        <path d="M43.6577229,29.5509578 C42.2966627,27.5885241 40.4607711,26.1113313 38.3241928,25.2620241 C39.268488,24.5972711 40.0598373,23.7163012 40.6296024,22.6822771 C41.2943012,21.489994 41.6424819,20.1236747 41.6424819,18.7414699 C41.6424819,14.4208193 38.2977892,10.9020904 34.1828916,10.9020904 C33.5973494,10.9020904 33.1225181,11.3768675 33.1225181,11.9624639 C33.1225181,12.5480602 33.5973494,13.0228373 34.1828916,13.0228373 C37.1266506,13.0228373 39.5217349,15.586753 39.5217349,18.7414699 C39.5217349,21.896241 37.1266506,24.4601024 34.1828916,24.4601024 C33.5973494,24.4601024 33.1225181,24.9349337 33.1225181,25.5204759 L33.1225181,25.5257892 C33.1225181,26.1113313 33.5973494,26.5861627 34.1828916,26.5861627 C39.4795,26.5861627 43.7843193,31.1810964 43.7843193,36.8258855 C43.7843193,37.4114819 44.2591506,37.886259 44.8446928,37.886259 C45.4302892,37.886259 45.9050663,37.4114819 45.9050663,36.8258855 C45.9103795,34.1934398 45.1296024,31.6770181 43.6577229,29.5509578 M32.705753,27.7520422 C31.5926265,26.966006 30.3845663,26.343488 29.1026084,25.9003193 C31.8036386,24.2596627 33.4654398,21.3370482 33.4654398,18.1611867 C33.4654398,13.1652651 29.4032952,9.10312048 24.4074277,9.10312048 C19.411506,9.10312048 15.3493614,13.1652651 15.3493614,18.1611867 C15.3493614,19.8599096 15.8241928,21.5216566 16.726253,22.9566145 C17.4859398,24.169988 18.5252229,25.1881265 19.7491145,25.9267229 C18.4460663,26.3698373 17.2169157,26.9976145 16.0879578,27.7995361 C14.858753,28.669988 13.7772892,29.7250482 12.8698614,30.9279036 C10.9917892,33.428494 10,36.4144337 10,39.5480602 C10,40.1336566 10.4748313,40.6084337 11.0603735,40.6084337 C11.6459699,40.6084337 12.120747,40.1336566 12.120747,39.5480602 C12.120747,36.2772651 13.3974458,33.2016506 15.7081145,30.8751506 C18.0187831,28.5591687 21.0733072,27.2772651 24.3124398,27.2772651 C24.4179458,27.2877831 24.5287651,27.2772651 24.6342711,27.2561205 L24.7186867,27.2350301 C27.8734036,27.2983554 30.838253,28.569741 33.0909096,30.8329157 C35.4068373,33.1541566 36.6782229,36.2350301 36.6782229,39.5058795 C36.6782229,40.0914217 37.153,40.566253 37.7385964,40.566253 C38.3241928,40.566253 38.7989699,40.0914217 38.7989699,39.5058795 C38.7989699,36.3721988 37.8071807,33.3915723 35.9238494,30.8856687 C35.0217349,29.6776084 33.9349578,28.622494 32.705753,27.7520422 M24.4126867,11.2238675 C28.2374157,11.2238675 31.3499518,14.3364578 31.3499518,18.1611867 C31.3499518,21.9859157 28.2374157,25.0984518 24.4126867,25.0984518 C20.5879578,25.0984518 17.4754217,21.9859157 17.4754217,18.1611867 C17.4754217,14.3364578 20.5879578,11.2238675 24.4126867,11.2238675" id="我们-copy" fill="#474647"></path>
    </g>
</svg>