<?xml version="1.0" encoding="UTF-8"?>
<svg width="90px" height="91px" viewBox="0 0 90 91" version="1.1" xmlns="http://www.w3.org/2000/svg" xmlns:xlink="http://www.w3.org/1999/xlink">
    <!-- Generator: Sketch 43.1 (39012) - http://www.bohemiancoding.com/sketch -->
    <title>mine_bills_icon@2x</title>
    <desc>Created with Sketch.</desc>
    <defs></defs>
    <g id="Page-1" stroke="none" stroke-width="1" fill="none" fill-rule="evenodd">
        <g id="Group-9-Copy" transform="translate(-2.000000, 19.000000)" fill="#474647">
            <path d="M40.052304,2.83329651 C39.2687532,2.83329651 38.6313513,2.19704699 38.6313513,1.4185124 C38.6313513,0.636317304 39.2687532,0 40.052304,0 L55.9478316,0 C56.7313824,0 57.3686487,0.636317304 57.3686487,1.4185124 C57.3686487,2.19704699 56.7314502,2.83329651 55.9478316,2.83329651 L40.052304,2.83329651 M31.8270199,42.8095058 C31.0434691,42.8095058 30.4099311,42.1731885 30.4099311,41.3909934 C30.4099311,40.6085949 31.0434691,39.9761415 31.8270199,39.9761415 L64.1693196,39.9761415 C64.9529382,39.9761415 65.5902723,40.6085949 65.5902723,41.3909934 C65.5902723,42.1731885 64.9529382,42.8095058 64.1693196,42.8095058 L31.8270199,42.8095058 M31.8270199,30.4208749 C31.0434691,30.4208749 30.4099311,29.7846932 30.4099311,29.0024981 C30.4099311,28.2240313 31.0434691,27.5876462 31.8270199,27.5876462 L64.1693196,27.5876462 C64.9529382,27.5876462 65.5902723,28.2240313 65.5902723,29.0024981 C65.5902723,29.7846932 64.9529382,30.4208749 64.1693196,30.4208749 L31.8270199,30.4208749 M31.8270199,18.4479144 C31.0434691,18.4479144 30.4099311,17.815461 30.4099311,17.0331981 C30.4099311,16.2509352 31.0434691,15.618414 31.8270199,15.618414 L64.1693196,15.618414 C64.9529382,15.618414 65.5902723,16.2508674 65.5902723,17.0331981 C65.5902723,17.815461 64.9529382,18.4479144 64.1693196,18.4479144 L31.8270199,18.4479144 M63.4907031,2.83329651 C62.7110162,2.83329651 62.0735465,2.19704699 62.0735465,1.4185124 C62.0735465,0.636317304 62.7110162,0 63.4907031,0 L70.7451407,0 C71.9146711,0 72.9794028,0.479051282 73.7479049,1.24633322 C74.5201353,2.01734345 75,3.08031262 75,4.24794505 L75,51.2566569 C75,52.4169684 74.5201353,53.4762092 73.7479049,54.2509478 L73.7441766,54.2509478 L73.7441766,54.2547438 L73.7291279,54.2697248 C72.9568297,55.0295501 71.899758,55.5048054 70.7451407,55.5048054 L25.2551305,55.5048054 C24.0854644,55.5048054 23.0207328,55.0256863 22.2484346,54.2585399 C21.4798647,53.4874619 21,52.4244249 21,51.2566569 L21,4.24801283 C21,3.08397313 21.4798647,2.02107174 22.2484346,1.25385759 L22.255959,1.24633322 C23.0245289,0.479051282 24.0891927,0 25.2551305,0 L32.5055686,0 C33.2891194,0 33.9263857,0.636317304 33.9263857,1.4185124 C33.9263857,2.19704699 33.2891872,2.83329651 32.5055686,2.83329651 L25.2551305,2.83329651 C24.865287,2.83329651 24.5090659,2.99042696 24.2541187,3.24869573 C23.9954432,3.50316842 23.8379738,3.85871164 23.8379738,4.24801283 L23.8379738,51.2567247 C23.8379738,51.6423654 23.9991715,51.9977731 24.2579148,52.2523813 C24.5127942,52.5105823 24.8689475,52.6715088 25.2550627,52.6715088 L70.7450729,52.6715088 C71.1347808,52.6715088 71.487138,52.5143106 71.7422208,52.2598379 L71.7496774,52.2523813 C72.0046246,51.9977731 72.1621618,51.6460259 72.1621618,51.2567247 L72.1621618,4.24801283 C72.1621618,3.86250772 72.0010319,3.50696449 71.7422886,3.25242402 C71.4872058,2.99422303 71.1311203,2.83322872 70.7451407,2.83322872 L63.4907031,2.83322872 L63.4907031,2.83329651 M73.7290601,54.2697248 C73.1743584,54.8049038 72.2895337,54.797515 71.7422208,54.2510156" id="订单-(2)"></path>
        </g>
    </g>
</svg>