<?xml version="1.0" encoding="UTF-8"?>
<svg width="50px" height="50px" viewBox="0 0 50 50" version="1.1" xmlns="http://www.w3.org/2000/svg" xmlns:xlink="http://www.w3.org/1999/xlink">
    <!-- Generator: Sketch 43.1 (39012) - http://www.bohemiancoding.com/sketch -->
    <title>mine_share_icon@2x</title>
    <desc>Created with Sketch.</desc>
    <defs></defs>
    <g id="Page-1" stroke="none" stroke-width="1" fill="none" fill-rule="evenodd">
        <path d="M39.8731289,43.0868254 C37.6589821,43.0868254 35.8640326,41.291876 35.8640326,39.0777292 C35.8640326,36.8635237 37.6589821,35.0685742 39.8731289,35.0685742 C42.0872757,35.0685742 43.8822251,36.8635237 43.8822251,39.0777292 C43.8822251,41.291876 42.0872757,43.0868254 39.8731289,43.0868254 Z M15.9887439,29.2969462 C13.7745383,29.2969462 11.9795889,27.5019967 11.9795889,25.2877912 C11.9795889,24.5315563 12.1890114,23.8242414 12.5529462,23.2205808 C13.2546232,22.056894 14.530832,21.2786949 15.9887439,21.2786949 C18.2029494,21.2786949 19.9978989,23.0736444 19.9978989,25.2877912 C19.9978989,26.0074388 19.8083263,26.6827471 19.4763393,27.2665579 C18.7868777,28.479106 17.4833018,29.2969462 15.9887439,29.2969462 Z M39.8731289,7.00460685 C42.0872757,7.00460685 43.8822251,8.79955628 43.8822251,11.0137031 C43.8822251,13.2279086 42.0872757,15.0228581 39.8731289,15.0228581 C37.6589821,15.0228581 35.8640326,13.2279086 35.8640326,11.0137031 C35.8640326,8.79955628 37.6589821,7.00460685 39.8731289,7.00460685 Z M35.2829821,35.1959543 L21.6635889,27.3470147 C21.8953279,26.731491 22.0294617,26.0200065 22.0294617,25.2772202 C22.0294617,24.5064796 21.8953279,23.7949951 21.6499641,23.1377749 L35.535217,15.1712039 C36.6282545,16.315863 38.1662708,17.0274062 39.8704861,17.0274062 C43.1944078,17.0274062 45.886832,14.3349821 45.886832,11.0137031 C45.886832,7.69248287 43.1944078,5 39.8731289,5 C36.5518499,5 33.8594258,7.69248287 33.8594258,11.0137031 C33.8594258,11.9047178 34.0578662,12.7476933 34.4057096,13.5084502 L20.6733834,21.4364959 C19.5621403,20.0818858 17.8880522,19.2244046 16.0137031,19.2244046 C12.6924829,19.2244046 10,21.9168287 10,25.2381077 C10,28.6086003 12.6924829,31.3010245 16.0137031,31.3010245 C17.8880522,31.3010245 19.5620816,30.443602 20.6649853,29.0994454 L34.2603002,36.9338206 C34.0067732,37.5712496 33.859602,38.309925 33.8594258,39.0828972 C33.8594258,42.3990082 36.5518499,45.0914323 39.8731289,45.0914323 C43.1944078,45.0914323 45.886832,42.3989494 45.886832,39.0777292 C45.886832,35.7564502 43.1944078,33.0640261 39.8731289,33.0640261 C38.0299054,33.0640261 36.3835367,33.8920848 35.2829821,35.1959543 Z" id="分享-copy" fill="#3C3C3C"></path>
    </g>
</svg>