<?xml version="1.0" encoding="UTF-8"?>
<svg width="90px" height="91px" viewBox="0 0 90 91" version="1.1" xmlns="http://www.w3.org/2000/svg" xmlns:xlink="http://www.w3.org/1999/xlink">
    <!-- Generator: Sketch 43.1 (39012) - http://www.bohemiancoding.com/sketch -->
    <title>mine_unused_icon @2x</title>
    <desc>Created with Sketch.</desc>
    <defs></defs>
    <g id="Page-1" stroke="none" stroke-width="1" fill="none" fill-rule="evenodd">
        <path d="M72.7636688,28.4969805 C71.7444481,27.1699675 70.1322403,26.1608766 68.3407143,26.1608766 L23.7457143,26.1608766 L23.2843182,22.6491234 C22.9472078,20.0600649 20.7290584,18 17.8906494,18 L15.3587662,18 C14.6083766,18 14,18.6221104 14,19.3731818 C14,20.1243506 14.608474,20.7463636 15.3587662,20.7463636 L17.8906494,20.7463636 C19.0132143,20.7463636 20.3939935,21.3816234 20.5890909,22.8812338 L25.7777273,62.5861364 C26.1227273,65.233539 28.3905519,66.8861688 31.1712987,66.8861688 L65.6362338,66.8861688 C66.3874026,66.8861688 66.9950974,66.3032143 66.9950974,65.5522403 C66.9950974,64.8010714 66.3873052,64.2182143 65.6362338,64.2182143 L31.1712987,64.2182143 C29.7513636,64.2182143 28.6413636,63.4303247 28.4727597,62.1337987 L28.0352273,58.8039935 L62.3678896,58.8039935 C64.8985065,58.8039935 67.0137013,57.4177597 67.6294805,55.103474 L73.6022078,33.0438312 C74.0216234,31.4724351 73.716461,29.7363312 72.7636688,28.4969805 Z M70.9774026,32.3407792 L65.0033117,54.4487338 C64.7034091,55.5753896 63.6696753,56.0573377 62.3678896,56.0573377 L27.6744481,56.0573377 L24.1066883,28.9071429 L68.3407143,28.9071429 C69.281526,28.9071429 70.1082792,29.4528896 70.608539,30.1044156 C71.0490909,30.6777273 71.1791234,31.582987 70.9774026,32.3407792 Z M36.0714286,72.1282792 C36.0714286,73.7626948 34.746461,75.0875649 33.1121429,75.0875649 C31.4778247,75.0875649 30.1529545,73.7625974 30.1529545,72.1282792 C30.1529545,70.493961 31.4778247,69.1689935 33.1121429,69.1689935 C34.746461,69.1689935 36.0714286,70.4938636 36.0714286,72.1282792 Z M64.4838636,72.1282792 C64.4838636,73.7626948 63.1588961,75.0875649 61.5245779,75.0875649 C59.8902597,75.0875649 58.5653896,73.7625974 58.5653896,72.1282792 C58.5653896,70.493961 59.8902597,69.1689935 61.5245779,69.1689935 C63.1588961,69.1689935 64.4838636,70.4938636 64.4838636,72.1282792 L64.4838636,72.1282792 Z" id="购物车-copy" fill="#474647"></path>
    </g>
</svg>