<?xml version="1.0" encoding="UTF-8"?>
<svg width="100px" height="100px" viewBox="0 0 100 100" version="1.1" xmlns="http://www.w3.org/2000/svg" xmlns:xlink="http://www.w3.org/1999/xlink">
    <!-- Generator: Sketch 43.1 (39012) - http://www.bohemiancoding.com/sketch -->
    <title>que_icon_four @1x</title>
    <desc>Created with Sketch.</desc>
    <defs>
        <polygon id="path-1" points="38.5697437 0.178090418 0.422653815 0.178090418 0.422653815 32.2670619 38.5697437 32.2670619 38.5697437 0.178090418"></polygon>
        <polygon id="path-3" points="0 79.9582432 78.2073567 79.9582432 78.2073567 0.291737359 0 0.291737359"></polygon>
        <rect id="path-5" x="0" y="0" width="41.7997055" height="21.0866549"></rect>
    </defs>
    <g id="Page-1" stroke="none" stroke-width="1" fill="none" fill-rule="evenodd">
        <g id="Group-30" transform="translate(7.000000, 13.000000)">
            <g id="Group-23-Copy-2">
                <g id="Page-1" transform="translate(0.190471, 0.825692)">
                    <g id="Group-3" transform="translate(17.221052, 0.113647)">
                        <mask id="mask-2" fill="white">
                            <use xlink:href="#path-1"></use>
                        </mask>
                        <g id="Clip-2"></g>
                        <path d="M0.554681879,32.2670619 C0.466936519,31.1419572 0.422653815,29.9956384 0.422653815,28.8606843 C0.422653815,13.0455759 8.97905642,0.177711595 19.4970188,0.177711595 C30.0141612,0.177711595 38.5697437,13.0455759 38.5697437,28.8606843 C38.5697437,29.9289655 38.5320214,30.9987621 38.4557568,32.0427987 L36.0005268,31.8897541 C36.0735113,30.8964798 36.1095935,29.8782032 36.1095935,28.8606843 C36.1095935,14.2987229 28.6577983,2.45065042 19.4970188,2.45065042 C10.3362393,2.45065042 2.88280407,14.2987229 2.88280407,28.8606843 C2.88280407,29.9418455 2.92544668,31.0320985 3.00827174,32.104168 L0.554681879,32.2670619 Z" id="Fill-1" fill="#FFCD4F" mask="url(#mask-2)"></path>
                    </g>
                    <mask id="mask-4" fill="white">
                        <use xlink:href="#path-3"></use>
                    </mask>
                    <g id="Clip-5"></g>
                    <polygon id="Fill-4" fill="#F1C02B" mask="url(#mask-4)" points="13.9793938 32.8515861 23.3041834 32.8515861 23.3041834 28.9747101 13.9793938 28.9747101"></polygon>
                    <polygon id="Fill-6" fill="#F1C02B" mask="url(#mask-4)" points="50.0632377 32.8515861 59.3888473 32.8515861 59.3888473 28.9747101 50.0632377 28.9747101"></polygon>
                    <path d="M64.2267328,42.5438518 L8.50924972,42.5438518 C6.32053604,42.5438518 4.54594766,40.9043053 4.54594766,38.8821473 L4.54594766,34.3589991 C4.54594766,32.3368412 6.32053604,30.6972946 8.50924972,30.6972946 L64.2267328,30.6972946 C66.4154465,30.6972946 68.1900349,32.3368412 68.1900349,34.3589991 L68.1900349,38.8821473 C68.1900349,40.9043053 66.4154465,42.5438518 64.2267328,42.5438518" id="Fill-7" fill="#848484" mask="url(#mask-4)"></path>
                    <polygon id="Fill-8" fill="#F4F3F1" mask="url(#mask-4)" points="7.69329989 33.9285802 65.5084711 33.9285802 73.4350752 51.5900726 71.1036728 73.3436124 69.7054874 74.636157 3.03049509 74.636157 2.33099237 72.2677547 0.000410025043 52.8826171"></polygon>
                    <polygon id="Fill-9" fill="#E54C3C" mask="url(#mask-4)" points="43.6261726 33.9463092 43.5974708 74.6538859 69.7045854 74.6334294 73.4661551 51.7312978 65.7732653 33.9463092"></polygon>
                    <polygon id="Fill-10" fill="#444341" mask="url(#mask-4)" points="33.5703904 74.6365358 39.1655921 74.6365358 39.1655921 34.1441306 33.5703904 34.1441306"></polygon>
                    <polygon id="Fill-11" fill="#F1C02B" mask="url(#mask-4)" points="31.4727023 37.9126632 41.2641003 37.9126632 41.2641003 27.7897513 31.4727023 27.7897513"></polygon>
                    <polygon id="Fill-12" fill="#FFCD4F" mask="url(#mask-4)" points="39.0762067 36.9436336 33.6597759 36.9436336 33.0447383 35.2874188 32.3722972 31.2484065 40.2455981 31.2484065 39.6994447 35.2859035"></polygon>
                    <path d="M33.5384904,29.5313528 C33.5384904,29.7366749 33.3588995,29.9018418 33.137486,29.9018418 C32.9160724,29.9018418 32.7364815,29.7366749 32.7364815,29.5313528 C32.7364815,29.3260306 32.9160724,29.1608637 33.137486,29.1608637 C33.3588995,29.1608637 33.5384904,29.3260306 33.5384904,29.5313528" id="Fill-13" fill="#FFCD4F" mask="url(#mask-4)"></path>
                    <path d="M40.0993012,29.5313528 C40.0993012,29.7366749 39.9197102,29.9018418 39.6982967,29.9018418 C39.4768831,29.9018418 39.2972922,29.7366749 39.2972922,29.5313528 C39.2972922,29.3260306 39.4768831,29.1608637 39.6982967,29.1608637 C39.9197102,29.1608637 40.0993012,29.3260306 40.0993012,29.5313528" id="Fill-14" fill="#FFCD4F" mask="url(#mask-4)"></path>
                </g>
                <ellipse id="Oval-4" stroke="#F9D745" opacity="0.549875453" stroke-dasharray="2" cx="75.1514599" cy="17.6284713" rx="4.65596203" ry="4.30840503"></ellipse>
                <ellipse id="Oval-4-Copy" stroke="#E9E8E2" opacity="0.549875453" stroke-dasharray="2" cx="7.87280852" cy="24.3064991" rx="2.09518291" ry="1.93878227"></ellipse>
                <polygon id="Path-10" stroke="#ECECEC" points="82.6009991 36.5854535 79.8074219 40.463018 83.0665953 41.324699"></polygon>
                <polygon id="Path-11" stroke="#E3DDFF" points="4.380837 4.7032562 1.58725978 7.28829922 5.31202941 7.28829922"></polygon>
            </g>
            <g id="Group-26-Copy" transform="translate(44.000000, 56.000000)">
                <g id="Rectangle-7">
                    <use fill="#FFFFFF" fill-rule="evenodd" xlink:href="#path-5"></use>
                    <rect stroke="#FFCD4F" stroke-width="0.5" x="0.25" y="0.25" width="41.2997055" height="20.5866549"></rect>
                </g>
                <text id="FREE" font-family="AbadiMT-CondensedExtraBold, Abadi MT Condensed Extra Bold" font-size="11" font-style="condensed" font-weight="bold" letter-spacing="1.22000003" fill="#6A6A6A">
                    <tspan x="9.66214642" y="14.4143934">FREE</tspan>
                </text>
            </g>
        </g>
    </g>
</svg>