<?xml version="1.0" encoding="UTF-8"?>
<svg width="100px" height="100px" viewBox="0 0 100 100" version="1.1" xmlns="http://www.w3.org/2000/svg" xmlns:xlink="http://www.w3.org/1999/xlink">
    <!-- Generator: Sketch 43.1 (39012) - http://www.bohemiancoding.com/sketch -->
    <title>que_icon_one@1x</title>
    <desc>Created with Sketch.</desc>
    <defs></defs>
    <g id="Page-1" stroke="none" stroke-width="1" fill="none" fill-rule="evenodd">
        <g id="Group-17" transform="translate(10.000000, 3.000000)">
            <g id="Group-29-Copy">
                <g id="Group-27-Copy-3">
                    <ellipse id="Oval-4" stroke="#F9D745" opacity="0.549875453" stroke-dasharray="2" cx="74.1274869" cy="13.6284713" rx="4.65596203" ry="4.30840503"></ellipse>
                    <ellipse id="Oval-4-Copy" stroke="#E9E8E2" opacity="0.549875453" stroke-dasharray="2" cx="6.84883559" cy="20.3064991" rx="2.09518291" ry="1.93878227"></ellipse>
                    <polygon id="Path-10" stroke="#ECECEC" points="81.5770262 32.5854535 78.783449 36.463018 82.0426224 37.324699"></polygon>
                    <polygon id="Path-11" stroke="#E3DDFF" points="3.35686406 0.703256197 0.563286847 3.28829922 4.28805647 3.28829922"></polygon>
                </g>
                <path d="M24.8160227,35.322143 C24.7327734,34.1573817 24.6907597,32.9714572 24.6907597,31.7980738 C24.6907597,15.435764 32.8087382,2.12409423 42.7877675,2.12409423 C52.7660188,2.12409423 60.8832193,15.435764 60.8832193,31.7980738 C60.8832193,32.9032645 60.8474298,34.0100229 60.7750729,35.0901313 L58.4456472,34.9310152 C58.514892,33.9042068 58.5491254,32.8499646 58.5491254,31.7980738 C58.5491254,16.7329915 51.4791551,4.47556389 42.7877675,4.47556389 C34.09638,4.47556389 27.0248536,16.7329915 27.0248536,31.7980738 C27.0248536,32.9158057 27.0653112,34.0445112 27.1438923,35.153621 L24.8160227,35.322143 Z" id="Fill-38" fill="#FFCD4F"></path>
                <polygon id="Fill-40" fill="#F1C02B" points="21.21366 35.8092891 30.0614319 35.8092891 30.0614319 31.7984657 21.21366 31.7984657"></polygon>
                <polygon id="Fill-42" fill="#F1C02B" points="55.4493709 35.8092891 64.2963647 35.8092891 64.2963647 31.7984657 55.4493709 31.7984657"></polygon>
                <path d="M68.8865159,45.8360342 L16.024736,45.8360342 C13.9481704,45.8360342 12.2645107,44.1398407 12.2645107,42.0478166 L12.2645107,37.3683919 C12.2645107,35.2763677 13.9481704,33.5809581 16.024736,33.5809581 L68.8865159,33.5809581 C70.9638595,33.5809581 72.6467412,35.2763677 72.6467412,37.3683919 L72.6467412,42.0478166 C72.6467412,44.1398407 70.9638595,45.8360342 68.8865159,45.8360342" id="Fill-43" fill="#848484"></path>
                <polygon id="Fill-44" fill="#F4F3F1" points="15.2502058 36.9231019 70.1029679 36.9231019 77.6234183 55.1955889 75.4114754 77.7007213 74.084154 79.0379237 10.8263199 79.0379237 10.1626592 76.5869085 7.95071623 56.5320075"></polygon>
                <polygon id="Fill-45" fill="#E54C3C" points="49.3415141 36.9414434 49.315061 79.0562652 74.0836872 79.0351019 77.6532947 55.3409097 70.3545832 36.9414434"></polygon>
                <polygon id="Fill-46" fill="#444341" points="39.8016056 79.0379237 45.1093351 79.0379237 45.1093351 37.1457077 39.8016056 37.1457077"></polygon>
                <polygon id="Fill-47" fill="#F1C02B" points="37.8114016 41.0452283 47.1003171 41.0452283 47.1003171 30.5725662 37.8114016 30.5725662"></polygon>
                <polygon id="Fill-48" fill="#FFCD4F" points="45.0250743 40.04264 39.8861776 40.04264 39.3026541 38.3292024 38.6638904 34.1506408 46.1345469 34.1506408 45.6163781 38.3276348"></polygon>
                <path d="M39.7711068,32.3743406 C39.7711068,32.5859729 39.6007179,32.7576302 39.3906495,32.7576302 C39.180581,32.7576302 39.0101922,32.5859729 39.0101922,32.3743406 C39.0101922,32.1627084 39.180581,31.9910511 39.3906495,31.9910511 C39.6007179,31.9910511 39.7711068,32.1627084 39.7711068,32.3743406" id="Fill-49" fill="#FFCD4F"></path>
                <path d="M45.9953571,32.3743406 C45.9953571,32.5859729 45.8249683,32.7576302 45.6156778,32.7576302 C45.4048314,32.7576302 45.2344425,32.5859729 45.2344425,32.3743406 C45.2344425,32.1627084 45.4048314,31.9910511 45.6156778,31.9910511 C45.8249683,31.9910511 45.9953571,32.1627084 45.9953571,32.3743406" id="Fill-50" fill="#FFCD4F"></path>
            </g>
            <g id="Group-22-Copy" transform="translate(43.000000, 48.000000)">
                <path d="M35.764181,18.1613792 C35.764181,27.8905636 27.935036,35.7779914 18.2777438,35.7779914 C8.62045166,35.7779914 0.792749573,27.8905636 0.792749573,18.1613792 C0.792749573,8.43219485 8.62045166,0.546220661 18.2777438,0.546220661 C27.935036,0.546220661 35.764181,8.43219485 35.764181,18.1613792 Z" id="Stroke-51" stroke="#FFCD4F" fill="#FFFFFF"></path>
                <path d="M18.6341388,25.1506055 C19.9789163,25.1506055 20.9211264,24.9194774 21.4622118,24.4557676 C22.0018543,23.994965 22.2716755,23.4047889 22.2716755,22.6852392 C22.2716755,22.254963 22.1750016,21.8901004 21.9802109,21.5921051 C21.7883059,21.2941097 21.5285849,21.0426307 21.2010479,20.8376681 C20.8749537,20.6327054 20.488258,20.4626301 20.0409608,20.3288956 C19.5922206,20.1951611 19.12328,20.0788702 18.6341388,19.9742084 L18.6341388,25.1506055 Z M17.6241127,12.1507406 C17.5635111,12.1303897 17.4091214,12.1202142 17.1652723,12.1202142 C16.2894354,12.1202142 15.5362445,12.2946505 14.9028138,12.6435231 C14.272269,12.9938493 13.9548322,13.55786 13.9548322,14.3384624 C13.9548322,14.7687386 14.0515062,15.1394158 14.244854,15.4475866 C14.4396447,15.7557573 14.7036944,16.0115972 15.0413317,16.2165599 C15.3760832,16.4229762 15.7656647,16.5915979 16.2014188,16.7253324 C16.6400587,16.8590669 17.114771,16.9768114 17.6241127,17.0800196 L17.6241127,12.1507406 Z M23.863188,16.7718488 L22.7925604,16.9869869 C22.4462657,14.2977606 21.0596442,12.7162049 18.6341388,12.2437733 L18.6341388,17.2951577 C19.3267281,17.4390676 20.0250889,17.6033284 20.7277785,17.7879402 C21.4304681,17.9725519 22.0581271,18.2298455 22.6078699,18.5583672 C23.1590556,18.8868889 23.6063528,19.317165 23.9540904,19.852103 C24.300385,20.3855874 24.4735324,21.0847862 24.4735324,21.9467922 C24.4735324,23.3219317 23.9944914,24.390354 23.0364095,25.1506055 C22.0783277,25.9094034 20.6094612,26.290256 18.6341388,26.290256 L18.6341388,30.1714635 L17.6241127,30.1714635 L17.6241127,26.2277496 C16.9719244,26.146346 16.3673517,26.0024361 15.8046228,25.7960198 C15.2433369,25.5910571 14.7397668,25.3032373 14.2910266,24.9340138 C14.149623,24.8322593 13.9966762,24.7290511 13.8336291,24.625843 C13.670582,24.5240885 13.5176352,24.4732112 13.3733458,24.4732112 C13.1496972,24.4732112 12.9981932,24.6679984 12.9159483,25.0575728 L12.7023999,26.1041906 L11.6635159,26.1041906 L11.6635159,20.1282938 L12.7023999,19.9436821 C12.8856475,21.3202752 13.4310616,22.4599256 14.3371992,23.3640871 C15.2433369,24.2682486 16.3399367,24.8322593 17.6241127,25.0575728 L17.6241127,19.7590703 C16.9113228,19.6151604 16.2014188,19.4508995 15.5001721,19.2662878 C14.7960397,19.081676 14.1640519,18.8200216 13.6042089,18.4813245 C13.042923,18.1426273 12.591297,17.6963611 12.2435595,17.1410723 C11.8958219,16.587237 11.7241175,15.8676873 11.7241175,14.9853304 C11.7241175,13.6915945 12.1858437,12.6856785 13.1150677,11.9661288 C14.0414059,11.2480327 15.3717545,10.8875311 17.1046707,10.8875311 L17.3485198,10.8875311 C17.4307648,10.8875311 17.5216672,10.8991602 17.6241127,10.9195111 L17.6241127,7.28396793 L18.6341388,7.28396793 L18.6341388,11.0721428 C19.1434805,11.175351 19.6268501,11.3192609 20.0871334,11.5038726 C20.5445309,11.689938 20.9369982,11.9050761 21.2630923,12.1507406 C21.4261394,12.2742996 21.5891865,12.3876832 21.7522335,12.4908914 C21.9152806,12.5926459 22.0783277,12.6435231 22.2413747,12.6435231 C22.4462657,12.6435231 22.5775691,12.4996132 22.6381707,12.2132469 L22.7925604,11.1651755 L23.863188,11.1651755 L23.863188,16.7718488 Z" id="Fill-52" fill="#FFCD4F"></path>
            </g>
        </g>
    </g>
</svg>