<?xml version="1.0" encoding="UTF-8"?>
<svg width="100px" height="100px" viewBox="0 0 100 100" version="1.1" xmlns="http://www.w3.org/2000/svg" xmlns:xlink="http://www.w3.org/1999/xlink">
    <!-- Generator: Sketch 43.1 (39012) - http://www.bohemiancoding.com/sketch -->
    <title>que_icon_two@1x</title>
    <desc>Created with Sketch.</desc>
    <defs></defs>
    <g id="Page-1" stroke="none" stroke-width="1" fill="none" fill-rule="evenodd">
        <path d="M18.0061575,38.502695 C18.0061575,38.7805204 17.7805204,39.0061575 17.502695,39.0061575 C17.2248697,39.0061575 17,38.7805204 17,38.502695 C17,38.2248697 17.2248697,38 17.502695,38 C17.7805204,38 18.0061575,38.2248697 18.0061575,38.502695" id="Fill-57-Copy" fill="#FFFFFF"></path>
        <path d="M17.4980902,38.2486614 C17.4980902,38.3868066 17.3868066,38.4980902 17.2494288,38.4980902 C17.1120511,38.4980902 17,38.3868066 17,38.2486614 C17,38.1105162 17.1120511,38 17.2494288,38 C17.3868066,38 17.4980902,38.1105162 17.4980902,38.2486614" id="Fill-58-Copy" fill="#D46F41"></path>
        <g id="Group-20" transform="translate(12.000000, 15.000000)">
            <g id="Group-27-Copy-4" transform="translate(0.000000, 10.000000)">
                <ellipse id="Oval-4" stroke="#F9D745" opacity="0.549875453" stroke-dasharray="2" cx="74.1274869" cy="13.6284713" rx="4.65596203" ry="4.30840503"></ellipse>
                <ellipse id="Oval-4-Copy" stroke="#E9E8E2" opacity="0.549875453" stroke-dasharray="2" cx="6.84883559" cy="20.3064991" rx="2.09518291" ry="1.93878227"></ellipse>
                <polygon id="Path-10" stroke="#ECECEC" points="81.5770262 32.5854535 78.783449 36.463018 82.0426224 37.324699"></polygon>
                <polygon id="Path-11" stroke="#E3DDFF" points="3.35686406 0.703256197 0.563286847 3.28829922 4.28805647 3.28829922"></polygon>
            </g>
            <g id="Group-28-Copy" transform="translate(1.000000, 0.000000)">
                <path d="M17.1845103,27.0543745 C17.0996479,26.1173148 17.0576633,25.1623892 17.0576633,24.2172898 C17.0576633,11.0457488 25.2526933,0.329858291 35.325416,0.329858291 C45.3972454,0.329858291 53.5913821,11.0457488 53.5913821,24.2172898 C53.5913821,25.1070053 53.5547573,25.9985074 53.4815076,26.8676772 L51.1303719,26.7399369 C51.2000484,25.9136449 51.23578,25.0641275 51.23578,24.2172898 C51.23578,12.0900032 44.0975104,2.22273692 35.325416,2.22273692 C26.551535,2.22273692 19.4141587,12.0900032 19.4141587,24.2172898 C19.4141587,25.1177248 19.4543567,26.0261993 19.5338594,26.919488 L17.1845103,27.0543745 Z" id="Fill-70" fill="#EFB33C"></path>
                <path d="M59.623135,39.3623734 L9.901796,39.3623734 C6.92625154,39.3623734 4.51437221,36.9504941 4.51437221,33.9749496 L4.51437221,24.2193444 C4.51437221,21.2437999 6.92625154,18.8319206 9.901796,18.8319206 L59.623135,18.8319206 C62.5986795,18.8319206 65.0105588,21.2437999 65.0105588,24.2193444 L65.0105588,33.9749496 C65.0105588,36.9504941 62.5986795,39.3623734 59.623135,39.3623734" id="Fill-71" fill="#848484"></path>
                <path d="M58.1807418,39.3623734 L11.434054,39.3623734 C8.45850954,39.3623734 6.04663021,36.9504941 6.04663021,33.9749496 L6.04663021,25.8621022 C6.04663021,22.8865577 8.45850954,20.4737851 11.434054,20.4737851 L58.1807418,20.4737851 C61.1562863,20.4737851 63.5681656,22.8865577 63.5681656,25.8621022 L63.5681656,33.9749496 C63.5681656,36.9504941 61.1562863,39.3623734 58.1807418,39.3623734" id="Fill-72" fill="#EBEBEB"></path>
                <polygon id="Fill-77" fill="#B2B2B2" points="13.5478429 29.3288661 22.4789427 29.3288661 22.4789427 25.3099605 13.5478429 25.3099605"></polygon>
                <polygon id="Fill-79" fill="#B2B2B2" points="48.1065005 29.3288661 57.0367071 29.3288661 57.0367071 25.3099605 48.1065005 25.3099605"></polygon>
                <path d="M61.148068,40.8457685 L8.83172553,40.8457685 C6.44753815,40.8457685 4.51446154,38.9126919 4.51446154,36.5285045 L4.51446154,30.5506169 C4.51446154,28.1655363 6.44753815,26.233353 8.83172553,26.233353 L61.148068,26.233353 C63.5322554,26.233353 65.465332,28.1655363 65.465332,30.5506169 L65.465332,36.5285045 C65.465332,38.9126919 63.5322554,40.8457685 61.148068,40.8457685" id="Fill-82" fill="#B2B2B2"></path>
                <polygon id="Fill-83" fill="#F4F3F1" points="7.52850674 28.6586316 62.8981098 28.6586316 70.4883834 46.9665823 68.2560551 69.5158674 66.9161221 70.8549071 3.06295682 70.8549071 2.39299034 68.3992566 0.160662032 48.305622"></polygon>
                <polygon id="Fill-84" fill="#E54C3C" points="41.9410223 28.676944 41.9142237 70.8741128 66.9155861 70.8526739 70.5191125 47.1117417 63.1512678 28.676944"></polygon>
                <polygon id="Fill-86" fill="#444341" points="32.3104775 70.8551751 37.6693161 70.8551751 37.6693161 28.8822218 32.3104775 28.8822218"></polygon>
                <polygon id="Fill-87" fill="#F1C02B" points="30.3005781 32.788573 39.6783222 32.788573 39.6783222 22.2951113 30.3005781 22.2951113"></polygon>
                <polygon id="Fill-88" fill="#FFCD4F" points="37.5836497 31.7842486 32.3963225 31.7842486 31.8076453 30.0682411 31.1635842 25.8813972 38.7029403 25.8813972 38.1803665 30.0655612"></polygon>
                <path d="M32.280195,24.1009836 C32.280195,24.312693 32.1086836,24.4850978 31.8960809,24.4850978 C31.6843715,24.4850978 31.5119668,24.312693 31.5119668,24.1009836 C31.5119668,23.8883809 31.6843715,23.7168695 31.8960809,23.7168695 C32.1086836,23.7168695 32.280195,23.8883809 32.280195,24.1009836" id="Fill-89" fill="#FFCD4F"></path>
                <path d="M38.5633193,24.1009836 C38.5633193,24.312693 38.3918079,24.4850978 38.1792052,24.4850978 C37.9674958,24.4850978 37.7950911,24.312693 37.7950911,24.1009836 C37.7950911,23.8883809 37.9674958,23.7168695 38.1792052,23.7168695 C38.3918079,23.7168695 38.5633193,23.8883809 38.5633193,24.1009836" id="Fill-92" fill="#FFCD4F"></path>
                <path d="M16.8495271,32.194268 C16.7655579,31.256315 16.7226801,30.3022827 16.7226801,29.3571833 C16.7226801,16.1856423 24.9177101,5.4697518 34.9904328,5.4697518 C45.0622622,5.4697518 53.2563989,16.1856423 53.2563989,29.3571833 C53.2563989,30.2468988 53.219774,31.1375076 53.1465244,32.0075707 L50.7953887,31.8789372 C50.8650652,31.0526452 50.9007967,30.204021 50.9007967,29.3571833 C50.9007967,17.2298967 43.7634205,7.36263043 34.9904328,7.36263043 C26.217445,7.36263043 19.0791755,17.2298967 19.0791755,29.3571833 C19.0791755,30.2576183 19.1202668,31.1660928 19.1997695,32.0584882 L16.8495271,32.194268 Z" id="Fill-93" fill="#FFCD4F"></path>
            </g>
            <path d="M74.1235099,7.00523035 L75.8449526,7.61613913 C75.8933034,7.63302354 75.91863,7.68674667 75.9017456,7.7350975 C75.8840937,7.78344832 75.8311381,7.80877494 75.7827872,7.79189052 L74.0613445,7.18098174 C74.0129937,7.16409733 73.9884346,7.1103742 74.005319,7.06202338 C74.0229709,7.01367256 74.0759265,6.98834594 74.1235099,7.00523035" id="Fill-95-Copy" fill="#FFFFFF"></path>
            <path d="M71.409348,18.1945552 C71.0893116,18.0809691 70.9220024,17.7294664 71.0355884,17.40943 C71.1491745,17.0886261 71.5006773,16.9220844 71.8207137,17.0356705 C72.1415175,17.1492565 72.3080592,17.4999918 72.1944732,17.8207957 C72.0808871,18.1400646 71.7301518,18.3081413 71.409348,18.1945552" id="Fill-96-Copy" fill="#FFFFFF"></path>
            <g id="Group-21-Copy" transform="translate(42.000000, 39.000000)">
                <path d="M34,16.9988891 C34,26.3881592 26.3891539,34 17.0011107,34 C7.61306762,34 0,26.3881592 0,16.9988891 C0,7.60961903 7.61306762,1.0658141e-14 17.0011107,1.0658141e-14 C26.3891539,1.0658141e-14 34,7.60961903 34,16.9988891" id="Fill-38" fill="#FFCD4F"></path>
                <path d="M32.5217391,17 C32.5217391,25.5719013 25.5739255,32.5217391 17.001304,32.5217391 C8.43129061,32.5217391 1.47826087,25.5719013 1.47826087,17 C1.47826087,8.4280987 8.43129061,1.47826087 17.001304,1.47826087 C25.5739255,1.47826087 32.5217391,8.4280987 32.5217391,17" id="Fill-40" fill="#FFFFFF"></path>
                <path d="M19.081051,16.9379646 C19.081051,18.2289154 18.0571415,19.2757511 16.7918049,19.2757511 C15.5264682,19.2757511 14.5004031,18.2289154 14.5004031,16.9379646 C14.5004031,15.6492131 15.5264682,14.6023775 16.7918049,14.6023775 C18.0571415,14.6023775 19.081051,15.6492131 19.081051,16.9379646" id="Fill-42" fill="#0E303F"></path>
                <path d="M22.2815896,7.68483126 C22.2428236,7.68483126 22.206642,7.6742844 22.1704604,7.65319066 C22.0645,7.58990946 22.0283184,7.45280018 22.090344,7.3446948 L22.5141857,6.59586723 C22.5762114,6.49039855 22.7106002,6.45348452 22.8165607,6.51676572 C22.9225211,6.57741021 22.9587027,6.71451948 22.8966771,6.82526159 L22.4728353,7.57145244 C22.4314849,7.64528051 22.3591217,7.68483126 22.2815896,7.68483126" id="Fill-43" fill="#0E303F"></path>
                <path d="M11.0184844,27.5918801 C10.9797184,27.5918801 10.9435368,27.5839699 10.9099396,27.5628762 C10.8013947,27.499595 10.7652131,27.3624857 10.8246543,27.2543803 L11.2459117,26.5055527 C11.3079373,26.3948106 11.447495,26.36317 11.5482866,26.4211778 C11.6568315,26.484459 11.6930131,26.6215683 11.6309874,26.7296737 L11.2123145,27.4785012 C11.1709641,27.5523293 11.0960164,27.5918801 11.0184844,27.5918801" id="Fill-44" fill="#0E303F"></path>
                <path d="M27.007105,23.1985256 C26.968339,23.1985256 26.9321573,23.1879787 26.8959757,23.166885 L26.1671747,22.7397369 C26.0637986,22.6764556 26.027617,22.5393464 26.0896426,22.4286043 C26.1490838,22.3204989 26.2834727,22.2862216 26.3920175,22.346866 L27.1182342,22.7766509 C27.2216103,22.8399321 27.2603763,22.9770414 27.1983506,23.0877835 C27.1595846,23.1589748 27.084637,23.1985256 27.007105,23.1985256" id="Fill-45" fill="#0E303F"></path>
                <path d="M7.50289593,11.7063995 C7.46412991,11.7063995 7.4279483,11.6984893 7.39435109,11.6773956 L6.6577968,11.244974 C6.55183636,11.1843296 6.51307035,11.0445836 6.57509597,10.9364782 C6.6371216,10.8283728 6.77409485,10.7914588 6.87747089,10.85474 L7.61144077,11.2845248 C7.71740121,11.347806 7.75616722,11.487552 7.6941416,11.5930207 C7.65537558,11.6668487 7.58042796,11.7063995 7.50289593,11.7063995" id="Fill-46" fill="#0E303F"></path>
                <path d="M11.4430755,7.68455901 C11.3655434,7.68455901 11.2905958,7.64500826 11.2492454,7.57118018 L10.8305724,6.82235261 C10.7685468,6.71424723 10.8047284,6.57713795 10.9106889,6.51385675 C11.0166493,6.4584857 11.1536226,6.4901263 11.2156482,6.59823169 L11.6369056,7.34705926 C11.6963468,7.45516465 11.6575808,7.59227392 11.5516203,7.65555512 C11.5180231,7.67401214 11.4818415,7.68455901 11.4430755,7.68455901" id="Fill-47" fill="#0E303F"></path>
                <path d="M22.7138181,27.5919448 C22.6388704,27.5919448 22.5613384,27.5523941 22.5225724,27.4812027 L22.0935618,26.7323752 C22.0315362,26.6242698 22.0677178,26.4871605 22.1762627,26.4238793 C22.2770543,26.3605981 22.4140276,26.3948754 22.4786376,26.5056175 L22.9050637,27.2544451 C22.9670894,27.3599138 22.9309078,27.4996598 22.8249473,27.562941 C22.7913501,27.5840347 22.7525841,27.5919448 22.7138181,27.5919448" id="Fill-48" fill="#0E303F"></path>
                <path d="M6.76733752,23.1983153 C6.68980549,23.1983153 6.61485786,23.1587646 6.57350745,23.0849365 C6.51406622,22.9768311 6.55283224,22.8370851 6.65879268,22.7738039 L7.39276256,22.3466558 C7.498723,22.288648 7.63311185,22.3202886 7.69513747,22.4310307 C7.7571631,22.5391361 7.71839708,22.6762454 7.61243664,22.7395266 L6.87588236,23.1693114 C6.84228515,23.1877684 6.80610353,23.1983153 6.76733752,23.1983153" id="Fill-49" fill="#0E303F"></path>
                <path d="M26.2802258,11.7063995 C26.2052782,11.7063995 26.1303306,11.6668487 26.0889802,11.5956574 C26.0269546,11.487552 26.0631362,11.347806 26.1690966,11.2845248 L26.8953133,10.85474 C26.9986893,10.7914588 27.1356626,10.8283728 27.1976882,10.9364782 C27.2597138,11.0445836 27.2235322,11.1816928 27.1175718,11.244974 L26.3913551,11.6773956 C26.3577579,11.6984893 26.3189919,11.7063995 26.2802258,11.7063995" id="Fill-50" fill="#0E303F"></path>
                <path d="M6.00290834,17.2010262 L6.00290834,17.2010262 L5.19982178,17.2010262 C5.08193751,17.2010262 4.98615655,17.0981943 4.98861247,16.9742686 C4.98861247,16.8477062 5.08193751,16.7475109 5.19982178,16.7475109 L6.00290834,16.7501476 C6.11833668,16.7501476 6.21411765,16.8503429 6.21166172,16.9742686 C6.21166172,17.100831 6.11833668,17.2010262 6.00290834,17.2010262" id="Fill-51" fill="#0E303F"></path>
                <path d="M27.728153,17.2014637 C27.613182,17.2014637 27.5202267,17.1012685 27.5202267,16.9773428 C27.5177805,16.8507804 27.613182,16.7505851 27.728153,16.7505851 L28.5329499,16.7453117 L28.5329499,16.7453117 C28.6479209,16.7453117 28.7433223,16.8455069 28.7433223,16.9720693 C28.7433223,17.095995 28.6479209,17.198827 28.5353961,17.198827 L27.728153,17.2014637 Z" id="Fill-52" fill="#0E303F"></path>
                <path d="M16.8250279,29.1292578 L16.8250279,29.1292578 C16.7009767,29.1292578 16.6027694,29.0317264 16.6053538,28.9141886 L16.6105226,28.0939246 C16.6105226,27.9763868 16.7087299,27.8813562 16.8301967,27.8813562 L16.8327811,27.8813562 C16.954248,27.8813562 17.0524552,27.9788876 17.0524552,28.0964254 L17.0472864,28.9166894 C17.0472864,29.0342272 16.9464948,29.1292578 16.8250279,29.1292578" id="Fill-53" fill="#0E303F"></path>
                <path d="M16.8271752,6.14703592 C16.7057084,6.14703592 16.6075012,6.05162292 16.6075012,5.93361211 L16.6075012,5.11255813 C16.6075012,4.99454732 16.7057084,4.89913432 16.8271752,4.89913432 C16.9486421,4.89913432 17.0468493,4.99454732 17.0468493,5.11255813 L17.0468493,5.93361211 C17.0468493,6.05162292 16.9486421,6.14703592 16.8271752,6.14703592" id="Fill-54" fill="#0E303F"></path>
                <path d="M16.7942042,17.5616676 C16.4555213,17.5616676 16.1815548,17.2823648 16.1815548,16.937085 L16.1815548,7.66291249 C16.1815548,7.31763265 16.4555213,7.03832985 16.7942042,7.03832985 C17.1328872,7.03832985 17.4046964,7.31763265 17.4046964,7.66291249 L17.4046964,16.937085 C17.4046964,17.2823648 17.1328872,17.5616676 16.7942042,17.5616676" id="Fill-55" fill="#0E303F"></path>
                <path d="M12.8121379,21.6218946 C12.6569348,21.6218946 12.4995761,21.560316 12.3788625,21.4393581 C12.1417466,21.1952431 12.1417466,20.7993808 12.3810181,20.557465 L16.2050508,16.6560228 C16.4421667,16.414107 16.8301745,16.414107 17.069446,16.658222 C17.3065619,16.9001378 17.3065619,17.296 17.0672904,17.5401151 L13.2432577,21.4393581 C13.1268554,21.560316 12.9673411,21.6218946 12.8121379,21.6218946" id="Fill-56" fill="#0E303F"></path>
                <path d="M16.7937449,17.2493763 C16.6622534,17.2493763 16.5415398,17.1636061 16.5005834,17.0294528 C16.4510047,16.8645102 16.5436954,16.6907707 16.7053653,16.6401883 L24.6336586,14.1968386 C24.7931729,14.1462562 24.9656208,14.2408233 25.013044,14.4057659 C25.0604672,14.5707085 24.969932,14.7422488 24.8104177,14.7950304 L16.8821245,17.2383801 C16.8519461,17.247177 16.8217677,17.2493763 16.7937449,17.2493763" id="Fill-59" fill="#D46F41"></path>
            </g>
        </g>
    </g>
</svg>