<?xml version="1.0" encoding="UTF-8"?>
<svg width="100px" height="100px" viewBox="0 0 100 100" version="1.1" xmlns="http://www.w3.org/2000/svg" xmlns:xlink="http://www.w3.org/1999/xlink">
    <!-- Generator: Sketch 43.1 (39012) - http://www.bohemiancoding.com/sketch -->
    <title>que_icon_thr @1x</title>
    <desc>Created with Sketch.</desc>
    <defs></defs>
    <g id="Page-1" stroke="none" stroke-width="1" fill="none" fill-rule="evenodd">
        <g id="Group-25" transform="translate(3.000000, 9.000000)">
            <polygon id="Fill-5-Copy" fill="#F1C02B" points="65 47.3559107 70.2104918 47.3559107 70.2104918 45 65 45"></polygon>
            <g id="Group-24-Copy" transform="translate(5.000000, 0.000000)">
                <path d="M19.0356974,33.3245555 C18.945499,32.1610759 18.8985958,30.9682648 18.8985958,29.7950081 C18.8985958,13.4052629 27.9689484,0.0659853942 39.1174725,0.0659853942 C50.2659965,0.0659853942 59.3363491,13.4052629 59.3363491,29.7950081 C59.3363491,30.9030839 59.2966618,32.0111597 59.2172872,33.0931632 L56.612357,32.9334699 C56.6917316,31.9036112 56.727811,30.8476801 56.727811,29.7950081 C56.727811,14.7023635 48.8300378,2.4255351 39.1174725,2.4255351 C29.4049072,2.4255351 21.507134,14.7023635 21.507134,29.7950081 C21.507134,30.9161201 21.5504292,32.0437502 21.6406276,33.1550851 L19.0356974,33.3245555 Z" id="Fill-1" fill="#FFCD4F"></path>
                <polygon id="Fill-3" fill="#F1C02B" points="15.0121265 33.8153679 24.8978728 33.8153679 24.8978728 29.7969635 15.0121265 29.7969635"></polygon>
                <path d="M65.6852351,43.8590976 L11.807918,43.8590976 C8.05205603,43.8590976 5.01417342,41.1084623 5.01417342,37.7190538 C5.01417342,34.3296454 8.05205603,31.5790101 11.807918,31.5790101 L65.6852351,31.5790101 C69.4374892,31.5790101 72.4825877,34.3296454 72.4825877,37.7190538 C72.4825877,41.1084623 69.4374892,43.8590976 65.6852351,43.8590976" id="Fill-6" fill="#848484"></path>
                <polygon id="Fill-7" fill="#F4F3F1" points="8.34935001 34.9283323 69.6373689 34.9283323 78.0402532 53.2343968 75.5688166 75.7804808 74.0859547 77.119949 3.40647688 77.119949 2.66684988 74.6626279 0.191805374 54.5738649"></polygon>
                <polygon id="Fill-8" fill="#E54C3C" points="46.4405014 34.9475607 46.4116379 77.1391773 74.0845115 77.116364 78.0748894 53.380728 69.9173448 34.9475607"></polygon>
                <polygon id="Fill-9" fill="#444341" points="35.7794095 77.1215785 41.7108573 77.1215785 41.7108573 35.151577 35.7794095 35.151577"></polygon>
                <polygon id="Fill-10" fill="#F1C02B" points="33.5569206 39.0591738 43.9369542 39.0591738 43.9369542 28.5650439 33.5569206 28.5650439"></polygon>
                <polygon id="Fill-11" fill="#FFCD4F" points="41.6170509 38.0537579 35.8732159 38.0537579 35.2237873 36.3394994 34.5094158 32.1516246 42.8581811 32.1516246 42.2773033 36.3362404"></polygon>
                <path d="M35.8163753,30.4011724 C35.8163753,30.6298387 35.6094944,30.8162897 35.3557725,30.8162897 C35.1020505,30.8162897 34.899073,30.6298387 34.899073,30.4011724 C34.899073,30.1760241 35.1020505,29.9895731 35.3557725,29.9895731 C35.6094944,29.9895731 35.8163753,30.1760241 35.8163753,30.4011724" id="Fill-12" fill="#FFCD4F"></path>
                <path d="M42.7717555,30.4011724 C42.7717555,30.6298387 42.5648745,30.8162897 42.3111526,30.8162897 C42.0574307,30.8162897 41.8544532,30.6298387 41.8544532,30.4011724 C41.8544532,30.1760241 42.0574307,29.9895731 42.3111526,29.9895731 C42.5648745,29.9895731 42.7717555,30.1760241 42.7717555,30.4011724" id="Fill-13" fill="#FFCD4F"></path>
            </g>
            <g id="Group-27-Copy-4" transform="translate(0.000000, 7.000000)">
                <ellipse id="Oval-4" stroke="#F9D745" opacity="0.549875453" stroke-dasharray="2" cx="74.1274869" cy="13.6284713" rx="4.65596203" ry="4.30840503"></ellipse>
                <ellipse id="Oval-4-Copy" stroke="#E9E8E2" opacity="0.549875453" stroke-dasharray="2" cx="6.84883559" cy="20.3064991" rx="2.09518291" ry="1.93878227"></ellipse>
                <polygon id="Path-10" stroke="#ECECEC" points="81.5770262 32.5854535 78.783449 36.463018 82.0426224 37.324699"></polygon>
                <polygon id="Path-11" stroke="#E3DDFF" points="3.35686406 0.703256197 0.563286847 3.28829922 4.28805647 3.28829922"></polygon>
            </g>
            <path d="M98.1697705,20.070125 C98.1697705,20.1093125 98.1469508,20.1381875 98.1184262,20.1381875 L96.0532459,20.1381875 C96.0247213,20.1381875 96,20.1093125 96,20.070125 C96,20.0309375 96.0247213,20 96.0532459,20 L98.1184262,20 C98.1469508,20 98.1697705,20.0309375 98.1697705,20.070125" id="Fill-18-Copy" fill="#FFFFFF"></path>
            <path d="M98.1697705,20.0680625 C98.1697705,20.10725 98.1469508,20.1381875 98.1184262,20.1381875 L96.0532459,20.1381875 C96.0247213,20.1381875 96,20.10725 96,20.0680625 C96,20.028875 96.0247213,20 96.0532459,20 L98.1184262,20 C98.1469508,20 98.1697705,20.028875 98.1697705,20.0680625" id="Fill-19-Copy" fill="#FFFFFF"></path>
            <path d="M98.1697705,21.0680625 C98.1697705,21.10725 98.1469508,21.1381875 98.1184262,21.1381875 L96.0532459,21.1381875 C96.0247213,21.1381875 96,21.10725 96,21.0680625 C96,21.028875 96.0247213,21 96.0532459,21 L98.1184262,21 C98.1469508,21 98.1697705,21.028875 98.1697705,21.0680625" id="Fill-21-Copy" fill="#FFFFFF"></path>
            <path d="M98.1697705,21.0680625 C98.1697705,21.10725 98.1469508,21.1381875 98.1184262,21.1381875 L96.0532459,21.1381875 C96.0247213,21.1381875 96,21.10725 96,21.0680625 C96,21.0309375 96.0247213,21 96.0532459,21 L98.1184262,21 C98.1469508,21 98.1697705,21.0309375 98.1697705,21.0680625" id="Fill-22-Copy" fill="#FFFFFF"></path>
            <path d="M96.1697705,20.070125 C96.1697705,20.1093125 96.1469508,20.1381875 96.1184262,20.1381875 L94.0532459,20.1381875 C94.0228197,20.1381875 94,20.1093125 94,20.070125 C94,20.0309375 94.0228197,20 94.0532459,20 L96.1184262,20 C96.1469508,20 96.1697705,20.0309375 96.1697705,20.070125" id="Fill-24-Copy" fill="#FFFFFF"></path>
            <path d="M96.1697705,20.0680625 C96.1697705,20.10725 96.1469508,20.1381875 96.1184262,20.1381875 L94.0532459,20.1381875 C94.0228197,20.1381875 94,20.10725 94,20.0680625 C94,20.028875 94.0228197,20 94.0532459,20 L96.1184262,20 C96.1469508,20 96.1697705,20.028875 96.1697705,20.0680625" id="Fill-25-Copy" fill="#FFFFFF"></path>
            <path d="M96.1697705,20.070125 C96.1697705,20.1093125 96.1469508,20.1381875 96.1184262,20.1381875 L94.0532459,20.1381875 C94.0228197,20.1381875 94,20.1093125 94,20.070125 C94,20.0309375 94.0228197,20 94.0532459,20 L96.1184262,20 C96.1469508,20 96.1697705,20.0309375 96.1697705,20.070125" id="Fill-26-Copy" fill="#FFFFFF"></path>
            <path d="M96.1697705,21.0680625 C96.1697705,21.10725 96.1469508,21.1381875 96.1184262,21.1381875 L94.0532459,21.1381875 C94.0228197,21.1381875 94,21.10725 94,21.0680625 C94,21.028875 94.0228197,21 94.0532459,21 L96.1184262,21 C96.1469508,21 96.1697705,21.028875 96.1697705,21.0680625" id="Fill-28-Copy" fill="#FFFFFF"></path>
            <path d="M88.4013636,79.405248 C86.2403363,78.2610577 84.0733884,77.1168673 81.8945993,75.9622278 C80.8999346,75.418868 80.2368249,74.5777052 80,73.6633979 C80.6039035,72.9737489 81.1663627,72.2475276 81.6932981,71.4951833 C82.243916,70.7167159 82.7471689,69.91735 83.1971363,69.0970857 C84.221404,68.877652 85.3759254,69.0291657 86.3587488,69.5620763 C88.5375379,70.7114913 90.7222477,71.8713554 92.9128781,73.0207704 C94.9732548,74.1492869 94.8666836,76.0040247 93.5641466,77.7908425 L93.5641466,77.8012917 C92.2852921,79.6194572 90.4439784,80.5285399 88.4013636,79.405248" id="Fill-54-Copy" fill="#30363D"></path>
            <path d="M70.5513113,79.0585365 C66.5378586,80.0026512 62.3867834,79.3241688 58.8726119,77.1479042 C55.3456382,74.9716397 52.890839,71.5600251 51.9466854,67.5435369 C50.9993313,63.5238483 51.6810422,59.3697434 53.8701983,55.8429147 C56.0465522,52.3384888 59.4487056,49.8901912 63.4557573,48.9428761 C71.754707,46.9874384 80.0984641,52.1464655 82.0539821,60.4514749 C83.0045367,64.4743638 82.3228259,68.6316691 80.1304693,72.1616982 C77.9541153,75.6661241 74.551962,78.1112213 70.5513113,79.0585365 M71.133806,81.5164352 C75.7873629,80.4155014 79.7464068,77.5703556 82.2780186,73.49306 C84.8224324,69.3933617 85.619362,64.557574 84.5151824,59.8722045 C82.2396123,50.2102301 72.529233,44.2063004 62.8764631,46.4817769 C58.2165052,47.5795104 54.2542607,50.4342574 51.7194485,54.5083525 C49.1750346,58.6048504 48.3813055,63.4406382 49.4854851,68.1260077 C50.5896647,72.7985756 53.4477296,76.7638576 57.5411953,79.2953653 C61.6314606,81.8300733 66.4578455,82.6141686 71.133806,81.5164352" id="Fill-48-Copy" fill="#30363D"></path>
            <path d="M53.4208407,55.5642793 C55.6715473,51.9404768 59.1899312,49.4087791 63.3338792,48.4291941 C71.916353,46.403836 80.5451648,51.7419122 82.5674909,60.3265184 C83.5505201,64.4897545 82.8455193,68.7886764 80.5782635,72.4389542 C78.3275569,76.0627567 74.8091729,78.5911449 70.6718447,79.5707299 C66.5212769,80.5470055 62.2283851,79.8454108 58.5908461,77.5950129 C54.9466874,75.344615 52.4080227,71.8167854 51.4283034,67.6634775 C50.4518939,63.5035507 51.1568947,59.2112477 53.4208407,55.5642793" id="Fill-51-Copy" fill="#EFEFEF" opacity="0.545063406"></path>
            <path d="M76.8062641,53.5153212 C73.5980425,51.7250494 69.8166954,51.1668548 66.1602192,51.9477488 C62.503743,52.7286428 59.4011814,54.7445062 57.4160542,57.6309217 C55.4245234,60.5260138 54.8001689,63.9417019 55.6582561,67.2503787 L55.6614579,67.2677319 C55.9976488,68.5547608 56.5419579,69.7637004 57.2687706,70.8685208 C55.3572852,69.193937 54.0029162,67.0623857 53.3817635,64.6618597 L53.3753599,64.6473987 C52.5172727,61.338722 53.1416272,57.9201417 55.133158,55.0250496 C57.121487,52.138634 60.2208468,50.1198785 63.877323,49.3447689 C67.5337991,48.5638749 71.3151462,49.1191773 74.5233679,50.9123412 C76.4828805,52.008485 78.0805877,53.483507 79.2268385,55.2217191 C78.496824,54.5854352 77.6899659,54.0098874 76.8062641,53.5153212" id="Fill-52-Copy" fill="#FAFAFA"></path>
        </g>
    </g>
</svg>