<?xml version="1.0" encoding="UTF-8"?>
<svg width="260px" height="170px" viewBox="0 0 260 170" version="1.1" xmlns="http://www.w3.org/2000/svg" xmlns:xlink="http://www.w3.org/1999/xlink">
    <!-- Generator: Sketch 43.1 (39012) - http://www.bohemiancoding.com/sketch -->
    <title>range_city_icon@1x</title>
    <desc>Created with Sketch.</desc>
    <defs>
        <polygon id="path-1" points="18.9799229 0.0734415911 0.377796616 0.0734415911 0.377796616 18.0051822 18.9799229 18.0051822 18.9799229 0.0734415911"></polygon>
        <polygon id="path-3" points="250.420048 137.660406 250.420048 0.183221596 0.000368851956 0.183221596 0.000368851956 137.660406"></polygon>
    </defs>
    <g id="Page-1" stroke="none" stroke-width="1" fill="none" fill-rule="evenodd">
        <g id="Page-1-Copy" transform="translate(5.000000, 5.000000)">
            <g id="Group-3" transform="translate(43.340105, 0.404435)">
                <mask id="mask-2" fill="white">
                    <use xlink:href="#path-1"></use>
                </mask>
                <g id="Clip-2"></g>
                <path d="M2.2220564,9.61052942 C2.2220564,5.37694707 5.63854764,1.93262941 9.83792715,1.93262941 C13.3272667,1.93262941 16.2679389,4.31250882 17.1670155,7.54393883 C17.7516459,7.38311104 18.3611737,7.26969491 18.9799229,7.1981126 C17.9167071,3.10583559 14.2272654,0.073348627 9.83792715,0.073348627 C4.6223605,0.073348627 0.377796616,4.35248336 0.377796616,9.61052942 C0.377796616,13.233338 2.39357255,16.3913264 5.35268737,18.0051822 C5.43291267,17.4641315 5.56938789,16.8078053 5.78885481,16.1022083 C3.65043559,14.7421444 2.2220564,12.3436722 2.2220564,9.61052942" id="Fill-1" fill="#FFCD4F" mask="url(#mask-2)"></path>
            </g>
            <path d="M66.2560469,9.73263299 C69.9685418,10.8500607 71.6200765,14.3696793 70.9063479,19.6453885 L70.7634178,20.7005303 L80.3378925,20.7005303 C80.8478303,20.7005303 81.2600223,20.2849811 81.2600223,19.77089 C81.2600223,19.2567988 80.8478303,18.8412496 80.3378925,18.8412496 L72.8501978,18.8412496 C73.5215083,10.888176 68.8795064,8.58173818 66.7835052,7.95144199 C65.3597367,7.52287777 63.8105584,7.42991373 62.3203965,7.60282684 C62.4753144,8.19872634 62.5730601,8.81507792 62.6108675,9.45002231 C63.814247,9.31243553 65.0775649,9.37844 66.2560469,9.73263299" id="Fill-4" fill="#FFCD4F"></path>
            <path d="M41.1981815,20.7003444 L50.3945829,20.6984851 L50.4084148,19.783719 C50.4084148,19.7744226 50.4148698,19.5317864 50.4563656,19.1459857 C49.8403828,18.959128 49.2483754,18.7127733 48.6923311,18.4097105 C48.6702,18.5593826 48.6471468,18.710914 48.6323927,18.8410636 L41.1981815,18.8410636 C40.6891658,18.8410636 40.2760516,19.2566129 40.2760516,19.770704 C40.2760516,20.2847952 40.6891658,20.7003444 41.1981815,20.7003444" id="Fill-6" fill="#FFCD4F"></path>
            <path d="M56.3656506,12.8084412 L56.9668793,12.827034 L57.2259978,12.2785462 C57.7101159,11.2540825 59.080401,10.3402459 60.7854191,9.82336589 C60.7688208,9.17540653 60.6729193,8.54789927 60.5069359,7.94828121 C58.4948485,8.50234689 56.7640107,9.55934802 55.857557,10.9491604 C54.0326619,11.0067981 52.4963936,11.6268683 51.2837927,12.7982151 C50.1661713,13.8784573 49.5169919,15.2580436 49.1287752,16.5074803 C49.6516228,16.8393619 50.2141221,17.1117466 50.8107401,17.3088303 C51.1131987,16.236955 51.640657,15.0265632 52.5664754,14.135038 C53.529179,13.2072569 54.8044847,12.7498738 56.3656506,12.8084412" id="Fill-8" fill="#FFCD4F"></path>
            <path d="M50.8108323,17.3086444 C50.2142143,17.1115606 49.6517151,16.839176 49.1288674,16.5072944 C48.9094005,17.2119618 48.7729253,17.8692176 48.6927,18.4102683 C49.2487443,18.713331 49.8398296,18.9587561 50.4567344,19.1465435 C50.5056073,18.69009 50.6070416,18.030975 50.8108323,17.3086444" id="Fill-10" fill="#FFCD4F"></path>
            <path d="M60.7854191,9.82336589 C61.3626724,9.64859349 61.9777331,9.5221624 62.6103142,9.45058009 C62.573429,8.81470606 62.4756832,8.19835448 62.3207654,7.60245499 C61.7010941,7.6740373 61.0915663,7.78745343 60.5069359,7.94828121 C60.6729193,8.54789927 60.7688208,9.17540653 60.7854191,9.82336589" id="Fill-12" fill="#FFCD4F"></path>
            <path d="M205.28557,54.9799972 L205.272661,54.9799972 C202.620615,54.9874344 200.600228,57.3096761 199.863447,58.292306 L195.361608,58.292306 C194.852593,58.292306 194.439479,58.7087849 194.439479,59.2219463 C194.439479,59.7360375 194.852593,60.1515867 195.361608,60.1515867 L200.842749,60.1515867 L201.114777,59.7248818 C201.133219,59.6960629 203.013442,56.8457855 205.277271,56.839278 L205.28557,56.839278 C206.599605,56.839278 207.893354,57.8116819 209.131774,59.72953 L209.404725,60.1515867 L215.095188,60.1515867 C215.604204,60.1515867 216.017318,59.7360375 216.017318,59.2219463 C216.017318,58.7087849 215.604204,58.292306 215.095188,58.292306 L210.39417,58.292306 C208.864356,56.0927768 207.148273,54.9799972 205.28557,54.9799972" id="Fill-14" fill="#FFCD4F"></path>
            <path d="M38.1432574,87.2032855 L43.9591306,87.2032855 L44.1380238,86.5069849 C44.1444787,86.4818846 44.8388425,83.9532627 46.624086,83.08126 C47.5406831,82.634103 48.6463168,82.690811 49.9096348,83.2504546 L50.7211091,83.611155 L51.1102479,82.8070161 C51.7308413,81.525042 52.5257173,80.7162548 53.4736668,80.4066846 C54.788624,79.9753314 56.1284788,80.5758791 56.6107527,80.8324599 C57.8334969,81.558509 57.6020423,83.9207253 56.8320639,85.9399042 L56.3737653,87.1391403 L62.6986542,87.4552181 L62.7456828,87.4552181 C63.2334896,87.4552181 63.641071,87.0684876 63.6650463,86.5720597 C63.690866,86.0598278 63.2989608,85.6228968 62.7899451,85.5968669 L58.9455856,85.405361 C59.5966093,83.0031702 59.5043963,80.3936696 57.5125957,79.211167 C56.7887238,78.8225774 54.8909804,77.985901 52.9037905,78.6385086 C51.6801242,79.0391836 50.6574821,79.9130455 49.8570734,81.2424313 C48.3844319,80.7608776 47.0307453,80.8175856 45.8199887,81.4088369 C43.9462208,82.3236031 42.9816729,84.2897925 42.5814686,85.3440047 L38.1432574,85.3440047 C37.6342417,85.3440047 37.2211275,85.759554 37.2211275,86.2736451 C37.2211275,86.7877363 37.6342417,87.2032855 38.1432574,87.2032855" id="Fill-16" fill="#FFCD4F"></path>
            <path d="M82.292439,126.880895 L81.6174399,126.880895 C81.7299397,126.88469 81.8405953,126.898919 81.9549394,126.898919 C82.0683614,126.898919 82.179017,126.88469 82.292439,126.880895" id="Fill-18" fill="#FFCD4F"></path>
            <path d="M81.954755,125.039266 C82.0690991,125.039266 82.1797547,125.025986 82.2922545,125.021243 L81.6172555,125.021243 C81.7297553,125.025986 81.8404109,125.039266 81.954755,125.039266" id="Fill-20" fill="#FFCD4F"></path>
            <path d="M90.6748807,131.855959 C90.646618,131.945128 90.6183553,132.033349 90.5919768,132.119673 C90.6324867,132.034298 90.6616914,131.948923 90.6748807,131.855959" id="Fill-22" fill="#FFCD4F"></path>
            <path d="M115.112241,31.6172975 L112.275769,41.517038 L102.271582,41.517038 L99.6527329,31.6172975 L115.112241,31.6172975 Z M113.662652,43.3763188 L117.564184,29.7580167 L97.2515067,29.7580167 L100.85519,43.3763188 L113.662652,43.3763188 Z" id="Fill-24" fill="#FFCD4F"></path>
            <path d="M193.228538,25.0798803 L195.763473,25.0798803 C196.273411,25.0798803 196.685603,24.6643311 196.685603,24.1502399 C196.685603,23.6361488 196.273411,23.2205995 195.763473,23.2205995 L193.228538,23.2205995 C192.7186,23.2205995 192.306408,23.6361488 192.306408,24.1502399 C192.306408,24.6643311 192.7186,25.0798803 193.228538,25.0798803" id="Fill-26" fill="#FFCD4F"></path>
            <path d="M199.642043,25.0798803 L211.262724,25.0798803 C211.77174,25.0798803 212.184854,24.6643311 212.184854,24.1502399 C212.184854,23.6361488 211.77174,23.2205995 211.262724,23.2205995 L199.642043,23.2205995 C199.132105,23.2205995 198.719913,23.6361488 198.719913,24.1502399 C198.719913,24.6643311 199.132105,25.0798803 199.642043,25.0798803" id="Fill-28" fill="#FFCD4F"></path>
            <path d="M175.989043,124.255405 L175.967834,123.917945 C175.331564,123.685535 174.704516,123.5182 174.086689,123.395488 L174.148471,124.373469 L175.989043,124.255405 Z" id="Fill-30" fill="#FFCD4F"></path>
            <g id="Group-34" transform="translate(0.000000, 4.122997)">
                <mask id="mask-4" fill="white">
                    <use xlink:href="#path-3"></use>
                </mask>
                <g id="Clip-33"></g>
                <path d="M222.064922,123.827357 C221.554985,123.827357 221.142793,124.242906 221.142793,124.756997 L221.142793,129.883964 L220.567384,129.883964 C219.274557,129.883964 218.222407,128.822314 218.222407,127.518959 L218.222407,120.713991 C218.222407,119.410635 219.274557,118.349915 220.567384,118.349915 L222.590537,118.349915 C223.884285,118.349915 224.935513,119.410635 224.935513,120.713991 L224.935513,127.518959 C224.935513,128.685657 224.090842,129.652483 222.987052,129.84306 L222.987052,124.756997 C222.987052,124.242906 222.57486,123.827357 222.064922,123.827357 L222.064922,123.827357 Z M44.0984644,135.801125 L44.0984644,131.845505 C44.7190578,131.786008 45.2963112,131.595432 45.8080932,131.292369 C46.0045069,131.176164 46.1870886,131.045085 46.3604491,130.899131 C46.9487679,130.407351 47.3978452,129.76404 47.6495866,129.020328 C48.4324749,128.940379 49.2605476,128.888319 50.1476365,128.880882 L50.4381074,128.878093 L50.6741727,128.707969 C57.7662737,123.617258 64.6158545,120.319823 76.6662479,131.565683 L77.2803864,132.140201 L77.9055904,131.577769 C78.5510814,130.998603 79.2500558,130.575616 79.968395,130.258609 C81.6190075,129.5307 83.375665,129.413566 84.8778145,129.575323 C86.6741236,129.768688 88.1025028,130.346925 88.515617,130.729007 L89.7521931,131.871535 L90.0463526,130.206549 C90.1385656,129.68781 90.3110039,128.905982 90.5913313,127.991216 C90.6180731,127.906619 90.6448149,127.820162 90.6734009,127.732776 C91.0026013,126.71296 91.476576,125.545332 92.1451202,124.360041 C92.4291362,123.856176 92.7435825,123.35324 93.1032132,122.856812 C93.2848727,122.606739 93.4840528,122.360384 93.6869214,122.114959 C94.025343,121.705917 94.3840516,121.304313 94.7851781,120.92223 C96.3242129,119.459906 98.3409109,118.246725 100.983735,117.658263 C102.534758,117.313366 104.044284,117.258518 105.483729,117.40726 C106.069282,117.467687 106.639158,117.570877 107.197969,117.695449 C111.831671,118.735716 115.482383,121.82863 116.843447,124.241047 C116.983611,124.49019 117.10441,124.732826 117.194779,124.963377 L117.424389,125.55184 L118.052359,125.55184 C118.173158,125.55184 118.29488,125.562066 118.416601,125.578799 C120.397336,125.840958 122.417722,128.165059 122.921205,130.183308 L123.289135,131.659577 L124.424277,130.654636 C124.873354,130.25675 125.645177,130.114515 126.543331,130.25582 C127.314232,130.380392 128.075911,130.707625 128.635644,131.123174 C128.715869,131.182671 128.795173,131.243098 128.866177,131.306314 C129.06259,131.479227 129.223041,131.663296 129.333697,131.852013 L130.215253,133.35896 L130.960334,131.779501 C131.469349,130.701118 134.34455,127.807147 138.114217,127.374864 C141.354582,127.002079 144.359803,128.544352 147.045967,131.957062 L147.56236,132.613388 L148.263179,132.164372 C150.959487,130.438029 155.607943,130.406422 156.249746,131.013477 L157.676281,132.612458 L157.854252,130.469637 C158.05712,128.011668 162.978528,122.375258 169.177085,121.123033 C175.284351,119.895907 180.633627,123.364396 184.650424,131.168727 L185.222145,132.280577 L186.112922,131.405785 C187.620605,129.923938 189.490684,129.864441 190.795498,130.077329 C192.814962,130.405492 194.512604,131.556387 194.988423,132.480449 L195.94836,134.344378 L196.67131,132.37447 C197.065981,131.303525 200.605116,129.339195 204.407979,129.510248 C204.668942,129.521404 204.938204,129.545575 205.211154,129.579042 C205.817916,129.650624 206.446809,129.784492 207.078468,130.002958 C209.152338,130.717851 211.22713,132.352159 212.437886,135.801125 L44.0984644,135.801125 Z M43.1763345,123.970521 C42.6673188,123.970521 42.2542047,124.387 42.2542047,124.900162 L42.2542047,128.325887 L42.2542047,130.027128 L41.6787956,130.027128 C41.0323826,130.027128 40.4459079,129.762181 40.0208061,129.333617 C39.5966263,128.905052 39.3338193,128.314731 39.3338193,127.663053 L39.3338193,120.859015 C39.3338193,119.554729 40.3859695,118.494939 41.6787956,118.494939 L43.7019486,118.494939 C44.9956968,118.494939 46.047847,119.554729 46.047847,120.859015 L46.047847,125.078653 L46.047847,127.355342 L46.047847,127.663053 C46.047847,128.340761 45.7592204,128.949675 45.3036882,129.381028 C45.0934426,129.579042 44.8500003,129.740799 44.5788941,129.851426 C44.4258205,129.914642 44.2653699,129.958335 44.0984644,129.986224 L44.0984644,129.682232 L44.0984644,127.756947 L44.0984644,124.900162 C44.0984644,124.387 43.6862724,123.970521 43.1763345,123.970521 L43.1763345,123.970521 Z M42.2542047,135.801125 L36.2050326,135.801125 C36.5849501,134.926333 37.6131249,133.084716 39.984843,131.518272 C40.5040021,131.750682 41.0757227,131.886409 41.6787956,131.886409 L42.2542047,131.886409 L42.2542047,135.801125 Z M47.8921068,125.582518 C49.8433336,122.235812 53.4433287,119.978645 57.5634051,119.978645 C57.7146344,119.978645 57.8621752,119.998168 58.0115602,120.004675 C58.6330758,120.028846 59.2462921,120.097639 59.8447544,120.223141 C61.4999776,120.567108 63.0519222,121.279212 64.3908548,122.316691 C59.3228289,121.498607 54.7988597,123.502912 49.8396451,127.02532 C49.1600354,127.038335 48.5154666,127.077379 47.8921068,127.131299 L47.8921068,125.582518 Z M74.0418662,106.424488 C72.7093885,108.143394 71.9071355,110.29923 71.9071355,112.645642 C71.9071355,114.09867 72.2178933,115.478256 72.7665606,116.728623 L69.0125698,123.800397 C68.5837794,123.597735 68.162366,123.424822 67.7427969,123.261206 C65.8432094,120.707483 62.9956723,118.951393 60.0679099,118.377805 C61.3432155,111.697409 67.0936175,106.615994 74.0418662,106.424488 L74.0418662,106.424488 Z M89.8610045,110.470283 C90.049119,111.164725 90.1588524,111.891704 90.1588524,112.645642 C90.1588524,113.506489 90.0269878,114.336658 89.7826234,115.118485 L74.1267022,115.118485 C73.8832599,114.336658 73.7513953,113.506489 73.7513953,112.645642 C73.7513953,111.891704 73.8602066,111.164725 74.0483211,110.470283 L89.8610045,110.470283 Z M76.4394039,106.540694 C76.4624572,106.520241 76.4855104,106.49793 76.5085637,106.477478 C77.959074,105.175052 79.8641943,104.374631 81.9546628,104.374631 C85.0253553,104.374631 87.7032205,106.087029 89.1094686,108.611003 L74.799857,108.611003 C75.233258,107.833823 75.7902245,107.137523 76.4394039,106.540694 L76.4394039,106.540694 Z M78.5566141,79.6945383 L78.5566141,76.1330859 L79.2270026,76.1330859 C79.9803827,76.4073298 80.7881685,76.5653687 81.6346837,76.5653687 C82.4802768,76.5653687 83.2889847,76.4073298 84.0423649,76.1330859 L84.7127533,76.1330859 L84.7127533,79.6945383 L78.5566141,79.6945383 Z M78.5566141,85.2733103 L84.7127533,85.2733103 L84.7127533,81.5538191 L78.5566141,81.5538191 L78.5566141,85.2733103 Z M78.5566141,91.780793 L84.7127533,91.780793 L84.7127533,87.1325911 L78.5566141,87.1325911 L78.5566141,91.780793 Z M78.5566141,102.33593 L84.7127533,102.33593 L84.7127533,99.2188458 L78.5566141,99.2188458 L78.5566141,102.33593 Z M78.5566141,97.359565 L84.7127533,97.359565 L84.7127533,93.6400738 L78.5566141,93.6400738 L78.5566141,97.359565 Z M76.5260841,70.6556447 L86.7432833,70.6556447 C86.3495338,72.2843747 85.2116256,73.6211976 83.7113202,74.2738051 C83.0732063,74.550838 82.3723876,74.7060879 81.6346837,74.7060879 C80.8979019,74.7060879 80.195239,74.550838 79.5580472,74.2738051 C78.0577419,73.6211976 76.9207557,72.2843747 76.5260841,70.6556447 L76.5260841,70.6556447 Z M78.8350974,64.9123264 C79.6474938,64.3954463 80.6055868,64.0914539 81.6346837,64.0914539 C82.6637807,64.0914539 83.6218736,64.3954463 84.4342701,64.9123264 C85.7519937,65.750862 86.6778121,67.1601968 86.8622381,68.7963639 L76.4071294,68.7963639 C76.5915554,67.1601968 77.5173738,65.750862 78.8350974,64.9123264 L78.8350974,64.9123264 Z M82.9505631,54.2140247 L82.9505631,62.3604635 C82.5236169,62.2795848 82.0846831,62.2321731 81.6346837,62.2321731 C80.9984141,62.2321731 80.3842756,62.3251372 79.7968789,62.4841057 L79.7968789,54.133146 C80.3280257,54.3385965 80.8997462,54.464098 81.501897,54.464098 C82.0099906,54.464098 82.4904203,54.3618376 82.9505631,54.2140247 L82.9505631,54.2140247 Z M81.501897,46.6355962 C83.1340669,46.6355962 84.461934,47.9742784 84.461934,49.6197419 C84.461934,50.7604107 83.816443,51.7430406 82.8804812,52.2450464 C82.4664449,52.4663008 82.0016914,52.6048172 81.501897,52.6048172 C81.0011805,52.6048172 80.5373492,52.4663008 80.1233128,52.2450464 C79.187351,51.7430406 78.5418601,50.7604107 78.5418601,49.6197419 C78.5418601,47.9742784 79.8697271,46.6355962 81.501897,46.6355962 L81.501897,46.6355962 Z M84.8778145,122.335284 C85.0899044,122.269279 85.2946173,122.19026 85.5002522,122.11124 L88.7553707,127.686294 C88.6631577,128.000512 88.5783218,128.303575 88.5100842,128.579678 C87.5197167,128.13624 86.2139808,127.820162 84.8778145,127.69745 L84.8778145,122.335284 Z M73.2294698,126.315074 C72.3469915,125.682919 71.4884885,125.135361 70.6502725,124.656596 L73.855596,118.616722 C74.4420706,119.42272 75.1419672,120.134825 75.9331546,120.735373 L73.2294698,126.315074 Z M74.8625618,127.17871 L77.5099967,121.716143 C77.73223,121.8277 77.9563076,121.934609 78.1868401,122.029432 L78.1868401,129.078895 C77.8972913,129.252738 77.6095868,129.441455 77.3264929,129.656202 C76.4218835,128.8344 75.5458601,128.096265 74.6892014,127.420417 C74.757439,127.350694 74.8173774,127.271674 74.8625618,127.17871 L74.8625618,127.17871 Z M83.0335548,122.75827 L83.0335548,127.653757 C82.1022036,127.703027 81.0777173,127.862926 80.0310998,128.223626 L80.0310998,122.75827 L81.6171633,122.75827 L82.2921623,122.75827 L83.0335548,122.75827 Z M82.2921623,120.898989 C82.1796625,120.902708 82.0690069,120.915723 81.9546628,120.915723 C81.8412408,120.915723 81.7296631,120.902708 81.6171633,120.898989 C78.8120441,120.782784 76.3702442,119.24423 74.9796723,116.977766 L88.9296533,116.977766 C87.5390814,119.24423 85.0972815,120.782784 82.2921623,120.898989 L82.2921623,120.898989 Z M90.9288309,122.778722 C90.3773972,123.668388 89.9264757,124.560843 89.566845,125.412394 L87.1619303,121.292227 C87.8941014,120.842281 88.5672562,120.306808 89.1601858,119.689527 L90.9288309,122.778722 Z M94.7851781,23.0199413 L120.837192,23.0199413 L120.837192,42.3713358 L117.728692,42.492189 C117.219676,42.5107818 116.82316,42.9430646 116.843447,43.4562261 C116.86189,43.9573023 117.270393,44.3505402 117.763733,44.3505402 C117.77572,44.3505402 117.787708,44.3505402 117.799696,44.3496105 L120.837192,44.2306166 L120.837192,58.2421566 L116.122342,55.0395454 L105.219078,71.4114424 L105.472663,115.530316 C103.911498,115.39087 102.274717,115.467101 100.586297,115.842675 C98.2385545,116.366063 96.3398891,117.323592 94.7851781,118.499588 L94.7851781,23.0199413 Z M127.569662,65.0592096 L121.367416,67.5394901 L108.01682,69.1914611 L116.554821,57.5737451 L120.837192,60.4835195 L121.997231,61.2727842 L127.569662,65.0592096 Z M128.612591,98.7001065 L127.35665,99.3006542 L122.618747,69.0092516 L128.612591,66.6330907 L128.612591,98.7001065 Z M116.843447,104.330938 L116.843447,121.188108 C114.73638,118.891896 111.362307,116.644955 107.318768,115.811068 L107.062415,71.1827508 L120.825204,69.4796496 L125.619357,100.131753 L116.843447,104.330938 Z M132.109307,99.0849776 L128.855111,129.093769 C128.238206,128.776762 127.553986,128.535056 126.834725,128.41978 C125.905218,128.269178 125.048559,128.336113 124.321921,128.60106 C123.322332,126.298341 121.0917,124.083008 118.687707,123.73997 L118.687707,105.506004 L132.109307,99.0849776 Z M136.583482,74.9254831 L139.588703,74.9254831 L135.52211,126.09289 C133.50449,126.804995 131.831746,128.011668 130.705826,129.140251 L136.583482,74.9254831 Z M143.41462,126.502862 C141.335217,125.489554 139.411654,125.351037 137.905816,125.527669 C137.737066,125.547191 137.576616,125.589955 137.40971,125.616914 L141.438496,74.9254831 L141.914315,74.9254831 L143.41462,126.502862 Z M137.233583,68.925584 L146.106317,68.925584 L146.543407,73.0662023 L136.785428,73.0662023 L137.233583,68.925584 Z M152.443194,128.925505 C150.890327,129.113292 149.275678,129.540927 147.989306,130.189816 C147.080086,129.120729 146.166256,128.284053 145.266257,127.625867 L143.759497,74.9254831 L146.73982,74.9254831 L152.443194,128.925505 Z M152.942066,54.2381954 L157.593289,53.4089562 L157.770338,126.459169 L157.789703,126.459169 C157.11747,127.367427 156.607532,128.259882 156.311529,129.06588 C155.737964,128.907841 155.040834,128.832541 154.286531,128.822314 L149.453649,83.0589069 L152.942066,54.2381954 Z M157.724232,2.25363424 C162.830987,1.90315981 168.394197,1.98682745 169.772781,2.72868048 L171.328414,14.8781508 L157.520441,14.7480011 L157.466035,11.0350174 L159.354557,8.28514111 L157.724232,2.25363424 Z M158.05712,51.4390482 L157.600666,20.2486833 L165.469201,50.1180292 L158.05712,51.4390482 Z M175.988858,120.132036 L174.148287,120.2501 L174.086504,119.273048 C172.187839,118.894685 170.389686,118.983001 168.814688,119.300008 C165.197172,120.030705 161.939287,122.099155 159.609987,124.385141 L159.436627,53.0807931 L169.783846,51.2382458 L174.086504,119.273048 C174.705253,119.394831 175.33138,119.562167 175.967649,119.794577 L173.821853,85.8654912 L183.308725,125.568573 C180.913032,122.453348 178.391929,120.684242 175.967649,119.794577 L175.988858,120.132036 Z M171.565401,16.7402205 L185.830751,128.179933 L173.137633,75.0630698 L171.492553,49.0452241 L167.292251,49.7935847 L158.552304,16.617508 L171.565401,16.7402205 Z M194.580841,118.480995 C191.696419,118.565592 188.957693,119.625382 186.831262,121.46607 L185.270096,109.26361 C190.469986,110.592996 193.179204,114.652736 194.580841,118.480995 L194.580841,118.480995 Z M204.905007,127.679786 C204.760233,127.668631 204.616381,127.657475 204.48175,127.651897 C200.889132,127.524536 197.421001,128.905052 195.788831,130.509612 C194.689652,129.412636 192.935761,128.541563 191.088735,128.242219 C189.899188,128.046994 188.761279,128.108351 187.719273,128.403047 L187.12081,123.726026 L187.138331,123.74183 C189.096935,121.567401 191.944472,120.321683 194.950615,120.321683 C199.739236,120.321683 203.763411,123.45643 204.905007,127.679786 L204.905007,127.679786 Z M28.831682,123.833864 C28.3217442,123.833864 27.9095521,124.249413 27.9095521,124.763505 L27.9095521,130.350643 C26.2921363,130.28092 24.9937774,128.943168 24.9937774,127.294915 L24.9937774,121.150922 C24.9937774,119.459906 26.3594517,118.083109 28.036806,118.083109 L29.1415176,118.083109 C30.819794,118.083109 32.1845463,119.459906 32.1845463,121.150922 L32.1845463,127.294915 C32.1845463,128.774903 31.1397731,130.014113 29.7538119,130.300443 L29.7538119,124.763505 C29.7538119,124.249413 29.3406977,123.833864 28.831682,123.833864 L28.831682,123.833864 Z M222.987052,135.801125 L222.987052,131.70234 C225.108873,131.49782 226.779773,129.711051 226.779773,127.518959 L226.779773,120.713991 C226.779773,118.382453 224.90416,116.490635 222.590537,116.490635 L220.567384,116.490635 C218.25376,116.490635 216.378147,118.382453 216.378147,120.713991 L216.378147,127.518959 C216.378147,129.851426 218.25376,131.743245 220.568306,131.743245 L221.142793,131.743245 L221.142793,135.801125 L214.371593,135.801125 C212.789218,130.667651 209.574673,128.703321 206.874677,128.005161 C205.934104,123.084574 201.767921,119.245159 196.564343,118.577677 C194.510759,112.376046 190.466298,108.418567 185.01651,107.287195 L171.553414,2.10396214 L171.51284,1.79067333 L171.289684,1.56570035 C169.329236,-0.411644766 159.44677,0.239103509 156.464602,0.483598933 L155.358968,0.575633331 L157.349847,7.93838524 L155.613476,10.4670071 L156.217471,51.7662816 L151.276699,52.6475807 L148.587769,74.8613379 L147.765229,67.0663032 L135.580204,67.0663032 L132.344451,96.9142673 L130.456851,97.8169481 L130.456851,65.9014638 L122.681451,59.4962414 L122.681451,44.1590342 L125.251428,44.0577034 L125.279091,43.1931379 C125.297534,42.6381426 125.545587,41.0754171 126.472327,40.5101957 C127.145482,40.1002243 128.157981,40.217359 129.483082,40.8597405 L130.357261,41.2845861 L130.73349,40.3819053 C131.232362,39.1854581 132.838712,38.4659165 134.236661,38.8154613 C135.71668,39.1817396 136.463605,40.5938633 136.287478,42.6883431 L136.20172,43.697003 L142.131015,43.697003 C142.640031,43.697003 143.053145,43.2805241 143.053145,42.7673626 C143.053145,42.2532714 142.640031,41.8377222 142.131015,41.8377222 L138.152947,41.8377222 C138.057967,38.9112142 136.360326,37.4275082 134.677439,37.00917 C132.696704,36.5192495 130.591482,37.3075845 129.491381,38.8414912 C127.911772,38.2400139 126.573762,38.2697624 125.50778,38.9260885 C124.190978,39.7358053 123.709626,41.2883047 123.535344,42.267216 L122.681451,42.3006831 L122.681451,21.1606606 L92.9409183,21.1606606 L92.9409183,120.153418 C92.6449146,120.467636 92.3664314,120.786503 92.1054686,121.113736 L90.3930734,118.124013 C91.4074163,116.542695 92.0031122,114.664821 92.0031122,112.645642 C92.0031122,108.731856 89.7863119,105.336809 86.5570131,103.650442 L86.5570131,74.5573455 C87.9014785,73.25306 88.743383,71.4244573 88.743383,69.3987709 C88.743383,66.5931162 87.1315,64.1639659 84.7948229,62.9889004 L84.7948229,53.1282048 C85.7206413,52.2450464 86.3061937,51.0030468 86.3061937,49.6197419 C86.3061937,47.7818429 85.2752525,46.2005245 83.7758693,45.3796521 L81.6641919,24.3707088 L79.492576,45.2346282 C77.8474963,46.0043704 76.6976003,47.6740046 76.6976003,49.6197419 C76.6976003,50.868249 77.1807964,51.9949731 77.9526191,52.8548905 L77.9526191,63.2808075 C75.9027243,64.5395406 74.5259844,66.8069335 74.5259844,69.3987709 C74.5259844,71.4244573 75.367889,73.25306 76.7123544,74.5573455 L76.7123544,104.019509 C76.4172728,104.203578 76.1323347,104.400661 75.8584621,104.61169 C75.389098,104.571715 74.9169675,104.544756 74.444837,104.544756 C66.373434,104.544756 59.650185,110.425661 58.237482,118.15655 C58.0134045,118.146324 57.7911712,118.119365 57.5634051,118.119365 C53.7282669,118.119365 50.2841117,119.804803 47.8921068,122.466363 L47.8921068,120.859015 C47.8921068,118.526547 46.0155725,116.635659 43.7028707,116.635659 L41.6787956,116.635659 C39.3651717,116.635659 37.4895595,118.526547 37.4895595,120.859015 L37.4895595,127.663053 C37.4895595,128.677291 37.8602557,129.595775 38.4531852,130.324613 C35.1639479,132.724015 34.2989901,135.583589 34.241818,135.78718 L34.2888467,135.801125 L29.7538119,135.801125 L29.7538119,132.159723 C32.1578045,131.852942 34.028806,129.800296 34.028806,127.294915 L34.028806,121.150922 C34.028806,118.429865 31.8405918,116.223828 29.1424398,116.223828 L28.036806,116.223828 C25.3377318,116.223828 23.1495176,118.429865 23.1495176,121.150922 L23.1495176,127.294915 C23.1495176,129.967631 25.2741049,132.139271 27.9095521,132.209924 L27.9095521,135.801125 L0.922498742,135.801125 C0.412560913,135.801125 0.000368851956,136.216674 0.000368851956,136.730765 C0.000368851956,137.244856 0.412560913,137.660406 0.922498742,137.660406 L28.831682,137.660406 L42.7235688,137.660406 L43.6300224,137.660406 L249.498287,137.660406 C250.008225,137.660406 250.420417,137.244856 250.420417,136.730765 C250.420417,136.216674 250.008225,135.801125 249.498287,135.801125 L222.987052,135.801125 Z" id="Fill-32" fill="#FFCD4F" mask="url(#mask-4)"></path>
            </g>
            <path d="M104.490226,125.56908 C98.7545784,124.385647 95.0356286,129.191888 94.8797886,129.397339 C94.5708751,129.805451 94.648334,130.389265 95.053149,130.700695 C95.2209767,130.828985 95.4173903,130.891271 95.6119597,130.891271 C95.8895208,130.891271 96.1643155,130.76484 96.3459751,130.524993 C96.3773275,130.484088 99.5033479,126.441082 104.121374,127.390245 C104.615636,127.490646 105.107131,127.168991 105.208565,126.666055 C105.310922,126.16312 104.990021,125.67134 104.490226,125.56908" id="Fill-35" fill="#FFCD4F"></path>
            <path d="M167.50886,129.647133 C164.092368,130.202129 162.140219,134.292546 162.059072,134.467319 C161.841449,134.931209 162.037863,135.485275 162.498928,135.70467 C162.626182,135.765097 162.760813,135.792986 162.891755,135.792986 C163.237554,135.792986 163.569521,135.595902 163.726283,135.260302 C163.742881,135.226835 165.374129,131.876411 167.802097,131.483173 C168.304658,131.401365 168.646768,130.924459 168.56562,130.416875 C168.485395,129.910221 168.010498,129.563466 167.50886,129.647133" id="Fill-37" fill="#FFCD4F"></path>
            <path d="M44.2897142,148.840024 L30.5951632,148.840024 C30.0861475,148.840024 29.6730333,149.255573 29.6730333,149.769664 C29.6730333,150.283755 30.0861475,150.699305 30.5951632,150.699305 L44.2897142,150.699305 C44.7987299,150.699305 45.2118441,150.283755 45.2118441,149.769664 C45.2118441,149.255573 44.7987299,148.840024 44.2897142,148.840024" id="Fill-39" fill="#FFCD4F"></path>
            <path d="M137.340643,149.529073 C137.340643,149.014982 136.927528,148.599433 136.418513,148.599433 L50.1246755,148.599433 C49.6156598,148.599433 49.2025456,149.014982 49.2025456,149.529073 C49.2025456,150.043165 49.6156598,150.458714 50.1246755,150.458714 L136.418513,150.458714 C136.927528,150.458714 137.340643,150.043165 137.340643,149.529073" id="Fill-41" fill="#FFCD4F"></path>
            <path d="M197.425888,158.443302 L118.119029,158.443302 C117.610014,158.443302 117.1969,158.858851 117.1969,159.372943 C117.1969,159.887034 117.610014,160.302583 118.119029,160.302583 L197.425888,160.302583 C197.935826,160.302583 198.348018,159.887034 198.348018,159.372943 C198.348018,158.858851 197.935826,158.443302 197.425888,158.443302" id="Fill-43" fill="#FFCD4F"></path>
            <path d="M209.453136,158.323472 L201.831733,158.323472 C201.322717,158.323472 200.909603,158.739021 200.909603,159.253112 C200.909603,159.767203 201.322717,160.182752 201.831733,160.182752 L209.453136,160.182752 C209.963074,160.182752 210.375266,159.767203 210.375266,159.253112 C210.375266,158.739021 209.963074,158.323472 209.453136,158.323472" id="Fill-45" fill="#FFCD4F"></path>
        </g>
    </g>
</svg>