<?xml version="1.0" encoding="UTF-8"?>
<svg width="260px" height="170px" viewBox="0 0 260 170" version="1.1" xmlns="http://www.w3.org/2000/svg" xmlns:xlink="http://www.w3.org/1999/xlink">
    <!-- Generator: Sketch 43.1 (39012) - http://www.bohemiancoding.com/sketch -->
    <title>range_brand_icon@1x</title>
    <desc>Created with Sketch.</desc>
    <defs>
        <polygon id="path-1" points="64.3404204 35.8993494 0 35.8993494 0 0.151560526 64.3404204 0.151560526 64.3404204 35.8993494"></polygon>
        <polygon id="path-3" points="0 65.5907222 64.3405926 65.5907222 64.3405926 0 0 0"></polygon>
        <polygon id="path-5" points="55.421436 26.2033543 0 26.2033543 0 0.0387647609 55.421436 0.0387647609"></polygon>
        <polygon id="path-7" points="10.5226763 0.265699197 0.0194698993 0.265699197 0.0194698993 10.2388131 10.5226763 10.2388131 10.5226763 0.265699197"></polygon>
    </defs>
    <g id="Page-1" stroke="none" stroke-width="1" fill="none" fill-rule="evenodd">
        <g id="Group-19-Copy" transform="translate(18.000000, 16.000000)">
            <g id="Page-1" transform="translate(21.677852, 0.000000)">
                <g id="Group-3" transform="translate(0.000000, 29.691373)">
                    <mask id="mask-2" fill="white">
                        <use xlink:href="#path-1"></use>
                    </mask>
                    <g id="Clip-2"></g>
                    <path d="M64.2701434,28.0890869 L60.1951662,0.151560526 L45.6230015,0.151560526 L45.6230015,1.15674231 C45.6230015,1.26705122 45.5888716,1.36626397 45.5418626,1.45699141 L58.3263951,1.45699141 L59.1307008,0.404814118 L60.1481572,1.20439054 L59.222787,2.41452497 L62.9957471,28.2803326 C63.2243528,29.8461969 62.7800206,31.3787728 61.7438894,32.5947817 C60.662037,33.8656186 59.0714565,34.5940491 57.3791303,34.5940491 L7.70278872,34.5940491 C5.75803034,34.5940491 3.94013201,33.7468244 2.71596456,32.2703821 C1.56005685,30.8768346 1.07193537,29.0629384 1.37717228,27.2940795 L5.68719477,2.29181447 L4.79788638,1.22658286 L5.78185685,0.382621793 L6.67889275,1.45699141 L19.8337021,1.45699141 C19.7866931,1.36626397 19.7525632,1.26705122 19.7525632,1.15674231 L19.7525632,0.151560526 L4.74830148,0.151560526 L0.107927651,27.0695454 C-0.262349195,29.2189374 0.328805839,31.4205466 1.73006221,33.1104269 C3.19957832,34.8825493 5.37680617,35.8994799 7.70278872,35.8994799 L57.3791303,35.8994799 C59.4462411,35.8994799 61.3922874,35.0059125 62.7188444,33.4478807 C63.9848693,31.9616477 64.5502659,30.0080703 64.2701434,28.0890869" id="Fill-1" stroke="#FFCD4F" fill="#FFCD4F" mask="url(#mask-2)"></path>
                </g>
                <path d="M44.335082,30.8483109 L44.335082,29.8431292 L21.0404827,29.8431292 L21.0404827,30.8483109 C21.0404827,30.9586199 21.0063528,31.0571799 20.9593438,31.14856 L44.4162209,31.14856 C44.3692119,31.0571799 44.335082,30.9586199 44.335082,30.8483109" id="Fill-4" fill="#FFCD4F"></path>
                <polygon id="Fill-6" fill="#FFCD4F" points="33.1085456 49.2377853 33.1085456 47.9323544 20.6955779 47.9323544 6.67915034 31.1484295 5.83169933 31.1484295 5.68745235 31.9825998 20.0979832 49.2377853"></polygon>
                <polygon id="Fill-8" stroke="#FFCD4F" fill="#FFCD4F" points="34.3964651 47.9323544 34.3964651 49.2377853 46.1281235 49.2377853 59.2230446 32.1059631 59.0833054 31.1484295 58.3260087 31.1484295 45.496399 47.9323544"></polygon>
                <polygon id="Fill-10" fill="#FFCD4F" points="6.67915034 31.1484948 5.78147047 30.0741252 4.79814396 30.9174335 5.68745235 31.9826651 5.83169933 31.1484948"></polygon>
                <polygon id="Fill-12" fill="#FFCD4F" points="59.2228514 32.1058978 60.1482216 30.8957634 59.1301212 30.0961869 58.3258155 31.1483642 59.0831122 31.1483642"></polygon>
                <path d="M34.3964651,43.3066253 C34.3964651,42.9456737 34.1086151,42.6539099 33.7525054,42.6539099 C33.3963956,42.6539099 33.1085456,42.9456737 33.1085456,43.3066253 L33.1085456,47.9324197 L34.3964651,47.9324197 L34.3964651,43.3066253 Z" id="Fill-14" fill="#FFCD4F"></path>
                <path d="M33.1085456,52.8085957 C33.1085456,53.1695473 33.3963956,53.4613111 33.7525054,53.4613111 C34.1086151,53.4613111 34.3964651,53.1695473 34.3964651,52.8085957 L34.3964651,49.2375895 L33.1085456,49.2375895 L33.1085456,52.8085957 Z" id="Fill-16" stroke="#FFCD4F" fill="#FFCD4F"></path>
                <mask id="mask-4" fill="white">
                    <use xlink:href="#path-3"></use>
                </mask>
                <g id="Clip-19"></g>
                <polygon id="Fill-18" fill="#FFCD4F" mask="url(#mask-4)" points="33.1085456 49.2375895 34.3964651 49.2375895 34.3964651 47.9321586 33.1085456 47.9321586"></polygon>
                <path d="M21.0406115,13.1108993 C21.0406115,6.60071547 26.2650568,1.30523507 32.6879111,1.30523507 C39.1107655,1.30523507 44.3352108,6.60071547 44.3352108,13.1108993 L44.3352108,29.8432597 L45.6231303,29.8432597 L45.6231303,13.1108993 C45.6231303,5.88142305 39.8204091,-0.000195814634 32.6879111,-0.000195814634 C25.5554132,-0.000195814634 19.752692,5.88142305 19.752692,13.1108993 L19.752692,29.8432597 L21.0406115,29.8432597 L21.0406115,13.1108993 Z" id="Fill-20" stroke="#FFCD4F" fill="#FFCD4F" mask="url(#mask-4)"></path>
                <path d="M44.335082,30.8483109 C44.335082,30.9586199 44.3692119,31.0571799 44.4162209,31.14856 L45.5418626,31.14856 C45.5888716,31.0571799 45.6230015,30.9586199 45.6230015,30.8483109 L45.6230015,29.8431292 L44.335082,29.8431292 L44.335082,30.8483109 Z" id="Fill-21" fill="#FFCD4F" mask="url(#mask-4)"></path>
                <path d="M19.8337665,31.1484948 L20.9594082,31.1484948 C21.0064172,31.0571146 21.0405471,30.9585546 21.0405471,30.8482457 L21.0405471,29.8430639 L19.7526276,29.8430639 L19.7526276,30.8482457 C19.7526276,30.9585546 19.7867575,31.0571146 19.8337665,31.1484948" id="Fill-22" fill="#FFCD4F" mask="url(#mask-4)"></path>
            </g>
            <g id="Page-1" transform="translate(98.989453, 79.544949)">
                <polygon id="Fill-1" fill="#FFCD4F" points="50.8929856 18.2075656 51.1964054 20.2614537 52.31745 20.2614537 51.850949 17.0958534 4.09034295 17.0958534 3.53841846 20.2614537 4.66501007 20.2614537 5.02334497 18.2075656"></polygon>
                <g id="Group-56" transform="translate(0.000000, 0.290435)">
                    <g id="Group-4" transform="translate(0.000000, 21.044411)">
                        <mask id="mask-6" fill="white">
                            <use xlink:href="#path-5"></use>
                        </mask>
                        <g id="Clip-3"></g>
                        <path d="M55.360856,19.5520918 L52.4819734,0.0387647609 L51.3598194,0.0387647609 L54.2631087,19.7149576 C54.4600264,21.0484563 54.0778395,22.3530505 53.1853305,23.3891662 C52.2534379,24.4714179 50.8833338,25.0917533 49.4255875,25.0917533 L6.63507544,25.0917533 C4.95988752,25.0917533 3.3934204,24.370808 2.33893953,23.1129057 C1.34381134,21.926153 0.923350268,20.3819849 1.18627711,18.875615 L4.47119859,0.0387647609 L3.34460698,0.0387647609 L0.0929673826,18.6844005 C-0.22598396,20.5148345 0.283228792,22.389737 1.48969691,23.8282925 C2.75551772,25.3374417 4.63095161,26.2034654 6.63507544,26.2034654 L49.4255875,26.2034654 C51.2061681,26.2034654 52.8824654,25.4424985 54.0256979,24.1156701 C55.1156795,22.8499858 55.6021496,21.1863086 55.360856,19.5520918" id="Fill-2" stroke="#FFCD4F" fill="#FFCD4F" mask="url(#mask-6)"></path>
                    </g>
                    <polygon id="Fill-5" fill="#FFCD4F" points="20.849877 19.9711857 4.66489913 19.9711857 4.47130953 21.0828978 20.7955166 21.0828978"></polygon>
                    <path d="M29.255382,10.2388131 L27.0016441,10.2388131 C26.3848199,10.7546475 25.655392,11.1354089 24.8577363,11.3505252 L31.0603692,11.3505252 C30.3875206,11.0953873 29.7773528,10.7162934 29.255382,10.2388131" id="Fill-7" fill="#FFCD4F"></path>
                    <polygon id="Fill-9" fill="#FFCD4F" points="21.960937 19.9711857 21.9065766 21.0828978 34.1265733 21.0828978 34.038931 19.9711857"></polygon>
                    <path d="M54.2130194,11.3505252 L54.2130194,19.9712969 L52.3176164,19.9712969 L52.481807,21.083009 L55.3224154,21.083009 L55.3224154,10.2388131 L36.8304486,10.2388131 C36.3084778,10.7162934 35.69831,11.0953873 35.0254614,11.3505252 L54.2130194,11.3505252 Z" id="Fill-11" fill="#FFCD4F"></path>
                    <path d="M23.3996572,10.437476 C23.8595018,10.437476 24.3032602,10.3674382 24.7220572,10.2390354 L22.0778119,10.2390354 C22.4960542,10.3674382 22.9398126,10.437476 23.3996572,10.437476" id="Fill-13" fill="#FFCD4F"></path>
                    <path d="M1.20796581,19.9711857 L1.20796581,11.350414 L21.9414671,11.350414 C21.1438114,11.1352977 20.4143836,10.7545363 19.7981141,10.2387019 L0.0985698322,10.2387019 L0.0985698322,21.0828978 L3.34466245,21.0828978 L3.53825205,19.9711857 L1.20796581,19.9711857 Z" id="Fill-15" fill="#FFCD4F"></path>
                    <polygon id="Fill-17" fill="#FFCD4F" points="35.1523208 19.9711857 35.2388537 21.0828978 51.3600413 21.0828978 51.1964054 19.9711857"></polygon>
                    <path d="M33.0429708,10.6068454 C33.6758812,10.6068454 34.2777285,10.4751075 34.8246607,10.2388687 L31.2612808,10.2388687 C31.8082131,10.4751075 32.4100604,10.6068454 33.0429708,10.6068454" id="Fill-19" fill="#FFCD4F"></path>
                    <polygon id="Fill-21" fill="#FFCD4F" points="4.66506554 19.9711857 3.53847393 19.9711857 3.34432963 21.0828978 4.47092124 21.0828978"></polygon>
                    <polygon id="Fill-23" fill="#FFCD4F" points="51.1962944 19.9711857 51.3599303 21.0828978 52.4815297 21.0828978 52.3173391 19.9711857"></polygon>
                    <path d="M20.0519994,36.2907861 C20.0375772,36.5976187 20.2727692,36.8583152 20.5789625,36.8733233 C20.5883923,36.8738791 20.5972675,36.8738791 20.6066974,36.8738791 C20.9001326,36.8738791 21.1458638,36.642643 21.160286,36.34526 L21.9069095,21.0831201 L20.7958494,21.0831201 L20.0519994,36.2907861 Z" id="Fill-25" fill="#FFCD4F"></path>
                    <polygon id="Fill-27" fill="#FFCD4F" points="20.849877 19.9711857 20.7955166 21.0828978 21.9065766 21.0828978 21.960937 19.9711857"></polygon>
                    <path d="M35.321892,36.3613243 C35.3446346,36.6525928 35.5875923,36.8738236 35.8743712,36.8738236 C35.8887933,36.8738236 35.9037702,36.8732677 35.9181923,36.872156 C36.2238309,36.8482542 36.4518118,36.5808874 36.4279598,36.2746107 L35.239242,21.0830646 L34.1265178,21.0830646 L35.321892,36.3613243 Z" id="Fill-29" fill="#FFCD4F"></path>
                    <polygon id="Fill-31" fill="#FFCD4F" points="34.1263514 21.0828978 35.2390756 21.0828978 35.1525427 19.9711857 34.0392638 19.9711857"></polygon>
                    <path d="M28.8312599,4.4441248 C28.6348968,4.95162138 28.5222931,5.50080717 28.5222931,6.07722991 C28.5222931,6.60084632 28.6160371,7.10111677 28.779673,7.56970343 C28.9421995,7.0438636 29.0298418,6.48578411 29.0298418,5.90769381 C29.0298418,5.40130894 28.9571763,4.9121556 28.8312599,4.4441248" id="Fill-33" fill="#FFCD4F"></path>
                    <g id="Group-37" transform="translate(17.750336, 0.000000)">
                        <mask id="mask-8" fill="white">
                            <use xlink:href="#path-7"></use>
                        </mask>
                        <g id="Clip-36"></g>
                        <path d="M1.12886587,5.90758264 C1.12886587,3.4095655 3.15684171,1.37735574 5.64909977,1.37735574 C7.61938701,1.37735574 9.29512963,2.6491544 9.91306319,4.4139974 C10.0578394,3.94429903 10.2669605,3.50350517 10.5226763,3.09383925 C9.54862661,1.40626025 7.73088131,0.265643612 5.64909977,0.265643612 C2.54500983,0.265643612 0.0194698993,2.79645626 0.0194698993,5.90758264 C0.0194698993,7.6463004 0.809359832,9.20325323 2.04744574,10.2388131 L4.32780916,10.2388131 C2.47844607,9.67128403 1.12886587,7.94423925 1.12886587,5.90758264" id="Fill-35" fill="#FFCD4F" mask="url(#mask-8)"></path>
                    </g>
                    <path d="M28.169838,8.88991716 C27.9279897,8.47080169 27.7405018,8.01833486 27.6118118,7.54029865 C27.1136931,8.82654957 26.0486729,9.83153733 24.7218353,10.2389798 L27.0016441,10.2389798 C27.4598246,9.85543914 27.8525508,9.39852546 28.169838,8.88991716" id="Fill-38" fill="#FFCD4F"></path>
                    <path d="M24.8579028,11.3505252 L21.9413007,11.3505252 C22.4078017,11.4761487 22.8948266,11.5489658 23.3996017,11.5489658 C23.9043769,11.5489658 24.3914017,11.4761487 24.8579028,11.3505252" id="Fill-40" fill="#FFCD4F"></path>
                    <path d="M24.8579028,11.3505252 C25.6550038,11.1354089 26.3849863,10.7546475 27.0012558,10.2388131 L24.7220017,10.2388131 C24.3032048,10.3672158 23.8594464,10.4372537 23.3996017,10.4372537 C22.9397571,10.4372537 22.4959987,10.3672158 22.0777564,10.2388131 L19.7979477,10.2388131 C20.4142172,10.7546475 21.1441997,11.1354089 21.9413007,11.3505252 L24.8579028,11.3505252 Z" id="Fill-42" fill="#FFCD4F"></path>
                    <path d="M29.255382,10.2388131 L31.2611699,10.2388131 C30.1040699,9.73965433 29.1993575,8.76801793 28.7800058,7.56959226 C28.6352296,8.03984649 28.4261085,8.4811962 28.169838,8.88975041 C28.4610545,9.39446771 28.8282645,9.84804626 29.255382,10.2388131" id="Fill-44" fill="#FFCD4F"></path>
                    <path d="M27.6119228,7.54040982 C27.8082859,7.03291323 27.9208896,6.48372745 27.9208896,5.90730471 C27.9208896,5.3836883 27.8271456,4.88286199 27.6635097,4.41427533 C27.5009832,4.94011516 27.4133409,5.49819465 27.4133409,6.07684081 C27.4133409,6.58378154 27.4860063,7.07237901 27.6119228,7.54040982" id="Fill-46" fill="#FFCD4F"></path>
                    <path d="M35.0255723,11.3505252 L31.0605911,11.3505252 C31.67797,11.5845406 32.3441622,11.7185019 33.0430817,11.7185019 C33.7420012,11.7185019 34.4081935,11.5845406 35.0255723,11.3505252" id="Fill-48" fill="#FFCD4F"></path>
                    <path d="M33.0429708,1.54705859 C35.5352288,1.54705859 37.5632047,3.57926835 37.5632047,6.07672964 C37.5632047,7.94051501 36.4332849,9.54471561 34.8246607,10.2389798 L36.8304486,10.2389798 C37.959259,9.20619926 38.6726006,7.72539872 38.6726006,6.07672964 C38.6726006,2.96615912 36.1476154,0.435346467 33.0429708,0.435346467 C31.0321906,0.435346467 29.2688057,1.50092254 28.2725681,3.09400601 C28.5149711,3.51367734 28.7030137,3.96670003 28.831149,4.44418038 C29.486802,2.75215453 31.1253798,1.54705859 33.0429708,1.54705859" id="Fill-50" fill="#FFCD4F"></path>
                    <path d="M33.0429708,10.6068454 C32.4100604,10.6068454 31.8082131,10.4751075 31.2612808,10.2388687 L29.2554929,10.2388687 C29.7774637,10.716349 30.3876315,11.0954428 31.0604802,11.3505808 L35.0254614,11.3505808 C35.69831,11.0954428 36.3084778,10.716349 36.8304486,10.2388687 L34.8246607,10.2388687 C34.2777285,10.4751075 33.6758812,10.6068454 33.0429708,10.6068454" id="Fill-52" fill="#FFCD4F"></path>
                    <path d="M27.9206677,5.90758264 C27.9206677,6.48344952 27.8086187,7.03263531 27.6117009,7.54068775 C27.7403908,8.0181681 27.9284335,8.47063494 28.1697271,8.88975041 C28.4259976,8.4811962 28.6351187,8.03984649 28.7798949,7.56959226 C28.616259,7.1010056 28.522515,6.60073515 28.522515,6.07711874 C28.522515,5.50125186 28.634564,4.95151021 28.8314818,4.44401363 C28.7027918,3.96653327 28.5147492,3.51351058 28.2729009,3.09383925 C28.0171851,3.50350517 27.808064,3.94429903 27.6632878,4.4139974 C27.8269237,4.88258406 27.9206677,5.38396623 27.9206677,5.90758264" id="Fill-54" fill="#FFCD4F"></path>
                </g>
            </g>
            <ellipse id="Oval-9" stroke="#F9D145" stroke-width="2" stroke-dasharray="4" cx="123.053691" cy="15.4955451" rx="11.4765101" ry="11.6216589"></ellipse>
            <ellipse id="Oval-9-Copy" stroke="#F9D145" stroke-width="2" stroke-dasharray="2" cx="61.5268456" cy="122.99589" rx="6.69463087" ry="6.779301"></ellipse>
            <path d="M32.1979866,79.3514851 L103.689569,79.3514851" id="Line" stroke="#FFCD4F" stroke-width="3" stroke-linecap="round"></path>
            <path d="M84.4798658,135.643564 L149.832215,135.643564" id="Line-Copy-3" stroke="#FFCD4F" stroke-width="2" stroke-linecap="round"></path>
            <path d="M0.318791946,79.3514851 L9.88255034,79.3514851" id="Line" stroke="#FFCD4F" stroke-width="3" stroke-linecap="round"></path>
            <path d="M160.352349,134.287129 L169.916107,134.287129" id="Line-Copy-4" stroke="#FFCD4F" stroke-width="2" stroke-linecap="round"></path>
            <rect id="Rectangle-29" stroke="#FFCD4F" x="31.7416107" y="97.9928049" width="3.46308725" height="3.519534"></rect>
            <rect id="Rectangle-29-Copy" stroke="#FFCD4F" x="36.8422819" y="97.9928049" width="3.46308725" height="3.519534"></rect>
            <rect id="Rectangle-29-Copy" stroke="#FFCD4F" x="36.8422819" y="103.157987" width="3.46308725" height="3.519534"></rect>
            <rect id="Rectangle-29-Copy" stroke="#FFCD4F" x="31.7416107" y="103.157987" width="3.46308725" height="3.519534"></rect>
            <polygon id="Path-12" stroke="#F9D145" points="154.932886 63.273476 164.496644 63.273476 160.033557 69.0843054"></polygon>
            <polygon id="Path-12-Copy" stroke="#F9D145" points="169.597315 63.273476 179.161074 63.273476 174.697987 69.0843054"></polygon>
            <polygon id="Path-12-Copy-2" stroke="#F9D145" points="184.899329 63.273476 190 63.273476 187.619687 66.5017146"></polygon>
            <g id="Page-1" transform="translate(110.302013, 43.904045)" fill="#FFCD4F">
                <path d="M14.9504509,6.05654827 C14.9546173,6.05654827 14.9585059,6.05654827 14.9626723,6.05626458 L16.9980926,5.96746846 C17.1514158,5.96065981 17.2702968,5.82817485 17.2636305,5.67185963 C17.2572421,5.51526071 17.1286395,5.39185395 16.9742053,5.40036476 L14.938785,5.48944458 C14.7854619,5.49596954 14.6668587,5.62845449 14.6732471,5.78505341 C14.6793578,5.93739692 14.802683,6.05654827 14.9504509,6.05654827" id="Fill-1"></path>
                <path d="M14.0222348,18.0013294 C6.73882996,18.0013294 0.791447405,12.0639041 0.566462356,4.67992463 C1.2741931,11.6465906 7.05547558,17.0966302 14.0605656,17.0966302 C20.7406773,17.0966302 26.3050297,12.1385155 27.4205111,5.63653976 C26.7361122,12.570581 20.9887163,18.0013294 14.0222348,18.0013294 L14.0222348,18.0013294 Z M5.01727769,6.6740076 L7.90514134,8.44766056 L23.1446842,8.0141766 L23.2088466,8.01219074 L24.4340429,6.45017327 L27.0749785,0.85998906 C27.1569175,1.18850636 27.2238575,1.52298122 27.282187,1.86029302 C27.3269062,2.31363554 27.350238,2.77350302 27.350238,3.23904437 C27.350238,10.7237351 21.3886897,16.8129365 14.0605656,16.8129365 C6.73244149,16.8129365 0.770615456,10.7237351 0.770615456,3.23904437 C0.770615456,2.71903383 0.802280019,2.20639933 0.858109642,1.70142455 L5.01727769,6.6740076 Z M0.956436441,0.989353384 L26.8919351,0.595870232 L24.2073913,6.28534724 L23.0727445,7.73246876 L7.97819204,8.16169732 L5.21365353,6.47201769 L0.905606485,1.321275 C0.921161007,1.21006708 0.938659845,1.09971023 0.956436441,0.989353384 L0.956436441,0.989353384 Z M27.4105118,0.000113477477 L27.2496891,0.00266672071 L26.9655414,0.00663843241 C26.9672079,0.0137307747 26.96943,0.0202557297 26.9710966,0.027348072 L26.8391609,0.0290502341 L1.08976091,0.419696449 L1.06059619,0.420263836 L0.774781846,0.424802935 L0.511188252,0.416008431 C0.176210512,1.64043041 0.000111103728,2.91421509 0.000111103728,4.24672436 C0.000111103728,12.1439057 6.29024865,18.5687167 14.0222348,18.5687167 C21.754221,18.5687167 28.0446363,12.1439057 28.0446363,4.24672436 C28.0446363,2.76782914 27.8207623,1.34226834 27.4105118,0.000113477477 L27.4105118,0.000113477477 Z" id="Fill-3"></path>
            </g>
        </g>
    </g>
</svg>