<?xml version="1.0" encoding="UTF-8"?>
<svg width="30px" height="30px" viewBox="0 0 30 30" version="1.1" xmlns="http://www.w3.org/2000/svg" xmlns:xlink="http://www.w3.org/1999/xlink">
    <!-- Generator: Sketch 43.1 (39012) - http://www.bohemiancoding.com/sketch -->
    <title>yuan_icon</title>
    <desc>Created with Sketch.</desc>
    <defs></defs>
    <g id="Page-1" stroke="none" stroke-width="1" fill="none" fill-rule="evenodd">
        <path d="M29.8254423,11.6255922 C29.6649175,11.2382009 29.2907946,11.0057571 28.8974663,11.0057571 L26.7043628,11.0057571 C24.7130735,5.60764618 19.5522189,2 13.7762069,2 C11.9166567,2 10.1124288,2.36436282 8.41362819,3.08283358 C6.77307346,3.77670165 5.29988006,4.76994003 4.03493253,6.03493253 C2.76994003,7.29992504 1.77670165,8.7732084 1.08287856,10.413943 C0.364362819,12.1128786 0,13.9173763 0,15.7771514 C0,17.6365217 0.364362819,19.4406597 1.08287856,21.1394153 C1.77674663,22.7798801 2.76994003,24.2530285 4.03493253,25.517931 C5.29988006,26.7828336 6.77307346,27.776027 8.41362819,28.4698951 C10.1124738,29.1884558 11.9167016,29.5527736 13.7762069,29.5527736 C16.4010045,29.5527736 18.9538831,28.8116792 21.1589955,27.4096402 C23.3046027,26.0454273 25.0301199,24.1203448 26.1489805,21.8425487 C26.3127886,21.5089505 26.1752474,21.1057271 25.8416942,20.9418741 C25.508006,20.7781559 25.1048726,20.9156072 24.9410195,21.2492054 C23.9311844,23.3049475 22.3737031,25.0424738 20.4368366,26.274048 C18.447976,27.5385907 16.1447676,28.2069565 13.7761619,28.2069565 C10.4558771,28.2069565 7.33425787,26.914033 4.98647676,24.5663418 C2.63874063,22.2186057 1.34572714,19.0973013 1.34572714,15.7771964 C1.34572714,12.4563268 2.63874063,9.3343928 4.98647676,6.98656672 C7.33416792,4.63878561 10.4556972,3.34581709 13.7761169,3.34581709 C18.653973,3.34581709 23.0455322,6.19698651 25.0614693,10.5552174 C25.1376612,10.7538831 25.1733283,10.8265667 25.2022489,10.948096 C25.2823988,11.2846177 25.2955772,11.6037331 25.2955772,11.6037331 L25.2955772,14.6075112 C25.2955772,14.9991754 25.5294153,15.3746927 25.9154123,15.5344978 C26.3024888,15.6943478 26.7317541,15.5952174 27.0102549,15.3181109 L29.6068966,12.7201199 C29.8855322,12.4415742 29.9847076,12.0129385 29.8254423,11.6255922" id="刷新" fill="#F8C300"></path>
    </g>
</svg>