<?xml version="1.0" encoding="UTF-8"?>
<svg width="392px" height="27px" viewBox="0 0 392 27" version="1.1" xmlns="http://www.w3.org/2000/svg" xmlns:xlink="http://www.w3.org/1999/xlink">
    <!-- Generator: Sketch 43.1 (39012) - http://www.bohemiancoding.com/sketch -->
    <title>Group 30@2x</title>
    <desc>Created with Sketch.</desc>
    <defs>
        <polygon id="path-1" points="19.7094118 4.17966315e-15 19.7094118 19.7104706 0.000235294118 19.7104706 0.000235294118 0 19.7094118 0"></polygon>
        <polygon id="path-3" points="19.7094118 4.17966315e-15 19.7094118 19.7104706 0.000235294118 19.7104706 0.000235294118 0 19.7094118 0"></polygon>
    </defs>
    <g id="Page-1" stroke="none" stroke-width="1" fill="none" fill-rule="evenodd">
        <g id="Group-30" transform="translate(1.000000, 0.000000)">
            <path d="M0,14 L60,14" id="Line-Copy-2" stroke="#FFFFFF" opacity="0.2" stroke-linecap="square"></path>
            <path d="M330,14 L390,14" id="Line-Copy-3" stroke="#FFFFFF" opacity="0.2" stroke-linecap="square"></path>
            <text id="我在简值赚了-copy" font-family=".PingFangSC-Regular, .PingFang SC" font-size="28" font-weight="normal" letter-spacing="3.02702737" fill="#FFFFFF">
                <tspan x="103" y="24">我在简值赚了</tspan>
            </text>
            <g id="Page-1-Copy-2" opacity="0.5" transform="translate(71.000000, 4.000000)">
                <mask id="mask-2" fill="white">
                    <use xlink:href="#path-1"></use>
                </mask>
                <g id="Clip-2"></g>
                <path d="M13.0549412,12.8688235 C13.0549412,12.8688235 14.5478824,18.1605882 9.85435294,18.2764706 L9.85435294,18.2741176 C5.16082353,18.1582353 6.65435294,12.8664706 6.65435294,12.8664706 C4.32494118,13.7270588 1.54023529,12.6217647 1.54905882,9.85411765 C1.55729412,7.34294118 3.50670588,5.99352941 6.63788235,6.88176471 C6.63788235,6.88176471 4.96494118,1.41647059 9.85435294,1.43529412 L9.85435294,1.43647059 C14.7437647,1.41941176 13.0702353,6.88411765 13.0702353,6.88411765 C16.202,5.99470588 18.1508235,7.34529412 18.1602353,9.85647059 C18.1690588,12.6235294 15.3843529,13.7294118 13.0549412,12.8688235 M9.85435294,0 C4.42611765,0 0.000235294118,4.42764706 0.000235294118,9.85529412 C0.000235294118,15.2835294 4.42611765,19.7105882 9.85435294,19.7105882 C15.2831765,19.7105882 19.7096471,15.2835294 19.7096471,9.85529412 C19.7096471,4.42764706 15.2831765,0 9.85435294,0 M9.85435294,8.47411765 C9.09376471,8.47411765 8.47376471,9.09470588 8.47376471,9.85529412 C8.47376471,10.6164706 9.09376471,11.2364706 9.85435294,11.2364706 C10.6155294,11.2364706 11.2361176,10.6164706 11.2361176,9.85529412 C11.2361176,9.09470588 10.6155294,8.47411765 9.85435294,8.47411765" id="Fill-1" fill="#FFFFFF" mask="url(#mask-2)"></path>
            </g>
            <g id="Page-1-Copy-3" opacity="0.5" transform="translate(294.000000, 4.000000)">
                <mask id="mask-4" fill="white">
                    <use xlink:href="#path-3"></use>
                </mask>
                <g id="Clip-2"></g>
                <path d="M13.0549412,12.8688235 C13.0549412,12.8688235 14.5478824,18.1605882 9.85435294,18.2764706 L9.85435294,18.2741176 C5.16082353,18.1582353 6.65435294,12.8664706 6.65435294,12.8664706 C4.32494118,13.7270588 1.54023529,12.6217647 1.54905882,9.85411765 C1.55729412,7.34294118 3.50670588,5.99352941 6.63788235,6.88176471 C6.63788235,6.88176471 4.96494118,1.41647059 9.85435294,1.43529412 L9.85435294,1.43647059 C14.7437647,1.41941176 13.0702353,6.88411765 13.0702353,6.88411765 C16.202,5.99470588 18.1508235,7.34529412 18.1602353,9.85647059 C18.1690588,12.6235294 15.3843529,13.7294118 13.0549412,12.8688235 M9.85435294,0 C4.42611765,0 0.000235294118,4.42764706 0.000235294118,9.85529412 C0.000235294118,15.2835294 4.42611765,19.7105882 9.85435294,19.7105882 C15.2831765,19.7105882 19.7096471,15.2835294 19.7096471,9.85529412 C19.7096471,4.42764706 15.2831765,0 9.85435294,0 M9.85435294,8.47411765 C9.09376471,8.47411765 8.47376471,9.09470588 8.47376471,9.85529412 C8.47376471,10.6164706 9.09376471,11.2364706 9.85435294,11.2364706 C10.6155294,11.2364706 11.2361176,10.6164706 11.2361176,9.85529412 C11.2361176,9.09470588 10.6155294,8.47411765 9.85435294,8.47411765" id="Fill-1" fill="#FFFFFF" mask="url(#mask-4)"></path>
            </g>
        </g>
    </g>
</svg>